<?xml version="1.0" encoding="UTF-8" standalone="no"?>
<svg
   width="100mm"
   height="100mm"
   viewBox="0 0 100 100"
   version="1.1"
   id="svg8"
   sodipodi:docname="opens.svg"
   inkscape:version="1.3.2 (091e20e, 2023-11-25, custom)"
   xmlns:inkscape="http://www.inkscape.org/namespaces/inkscape"
   xmlns:sodipodi="http://sodipodi.sourceforge.net/DTD/sodipodi-0.dtd"
   xmlns="http://www.w3.org/2000/svg"
   xmlns:svg="http://www.w3.org/2000/svg"
   xmlns:rdf="http://www.w3.org/1999/02/22-rdf-syntax-ns#"
   xmlns:cc="http://creativecommons.org/ns#"
   xmlns:dc="http://purl.org/dc/elements/1.1/">
  <defs
     id="defs2" />
  <sodipodi:namedview
     id="base"
     pagecolor="#ffffff"
     bordercolor="#666666"
     borderopacity="1.0"
     inkscape:pageopacity="0.0"
     inkscape:pageshadow="2"
     inkscape:zoom="2.2800001"
     inkscape:cx="165.57017"
     inkscape:cy="186.18421"
     inkscape:document-units="mm"
     inkscape:current-layer="layer1"
     inkscape:document-rotation="0"
     showgrid="false"
     inkscape:window-width="1920"
     inkscape:window-height="1027"
     inkscape:window-x="-8"
     inkscape:window-y="-8"
     inkscape:window-maximized="1"
     inkscape:snap-global="true"
     inkscape:snap-bbox="true"
     inkscape:bbox-nodes="true"
     inkscape:bbox-paths="true"
     inkscape:snap-page="true"
     inkscape:showpageshadow="2"
     inkscape:pagecheckerboard="0"
     inkscape:deskcolor="#d1d1d1" />
  <metadata
     id="metadata5">
    <rdf:RDF>
      <cc:Work
         rdf:about="">
        <dc:format>image/svg+xml</dc:format>
        <dc:type
           rdf:resource="http://purl.org/dc/dcmitype/StillImage" />
        <dc:title />
      </cc:Work>
    </rdf:RDF>
  </metadata>
  <g
     inkscape:label="Layer 1"
     inkscape:groupmode="layer"
     id="layer1"
     style="display:inline">
    <path
       style="fill:#fffe22;fill-opacity:1;fill-rule:evenodd;stroke:#fa09ff;stroke-width:0.2;stroke-opacity:0.978182"
       d="M 5.9080631,6.1542321 4.923386,15.262496 22.811687,15.754834 20.185882,1.9693542 Z"
       id="path1"
       sodipodi:nodetypes="ccccc" />
    <path
       style="fill:#fffe22;fill-opacity:1;fill-rule:evenodd;stroke:#fa09ff;stroke-width:0.2;stroke-opacity:0.978182"
       d="m 31.427614,3.0360879 -3.446372,11.1596751 12.554635,4.59516 2.461692,-9.272377"
       id="path2"
       sodipodi:nodetypes="cccc" />
    <path
       id="path5"
       style="fill:#fffe22;fill-opacity:1;fill-rule:evenodd;stroke:#fa09ff;stroke-width:0.2;stroke-opacity:0.97818202"
       d="M 72.537885,7.5491913 74.0149,17.888301 62.03466,17.724188 M 57.603614,17.560076 56.783048,4.4310473 72.209659,3.9387083" />
    <path
       id="path8"
       style="fill:#fffe22;fill-opacity:1;fill-rule:evenodd;stroke:#fa09ff;stroke-width:0.2;stroke-opacity:0.978182"
       d="M 93.216106,17.067737 C 90.689244,13.546839 88.282716,9.6248289 83.20522,14.606045 M 92.723767,3.9387086 c -10.05715,3.131363 9.063723,2.6619756 2.625806,10.0108844 m -14.277819,-3.44637 c 0.535448,-5.2604289 3.105221,-5.2270579 6.236287,-4.431047"
       sodipodi:nodetypes="cccccc" />
    <path
       style="fill:#fffe22;fill-opacity:1;fill-rule:evenodd;stroke:#fa09ff;stroke-width:0.2;stroke-opacity:0.978182"
       d="M 2.1661901,47.385429 C 7.5704862,70.586412 4.4976555,63.983919 15.828604,65.785414 12.556596,48.135817 14.178079,35.933884 2.5208892,61.232633 15.824504,62.220219 32.595093,64.313419 2.1661901,47.385429 Z"
       id="path16"
       sodipodi:nodetypes="cccc" />
    <path
       style="fill:#fffe22;fill-opacity:1;fill-rule:evenodd;stroke:#fa09ff;stroke-width:0.2;stroke-opacity:0.978182"
       d="M 29.294145,65.645144 23.960477,49.726195 C 45.180223,55.63443 6.3149466,63.277656 29.294145,65.645144 Z"
       id="path17"
       sodipodi:nodetypes="ccc" />
    <path
       id="path19"
       style="fill:#fffe22;fill-opacity:1;fill-rule:evenodd;stroke:#fa09ff;stroke-width:0.2;stroke-opacity:0.978182"
       d="M 46.936278,67.12216 C 50.448565,16.819706 61.454085,89.900103 64.414298,51.039099 M 43.571965,61.624378 56.044542,50.792929 68.845344,59.49091"
       sodipodi:nodetypes="ccccc" />
    <path
       id="path22"
       style="fill:#fffe22;fill-opacity:1;fill-rule:evenodd;stroke:#fa09ff;stroke-width:0.2;stroke-opacity:0.978182"
       d="M 72.784052,66.87599 84.928406,44.392527 96.416307,48.00301 M 79.1024,69.912077 C 92.236151,12.765025 81.932794,82.358262 92.969936,63.839904 M 76.804818,48.085068 c 36.461992,13.20582 12.603765,15.49023 -6.728628,14.441933"
       sodipodi:nodetypes="ccccccc" />
    <path
       id="path4"
       style="fill:#22ff3b;stroke:#fa09ff;stroke-width:0.2;stroke-opacity:0.978182"
       d="M 50.218535,17.47802 53.336679,7.3030225 M 48.74152,3.5284264 47.674786,15.18044" />
    <path
       id="path7"
       style="fill:#22ff3b;stroke:#fa09ff;stroke-width:0.2;stroke-opacity:0.978182"
       d="m 33.889307,64.57841 c 0.119385,-10.397082 10.096509,1.903104 6.810682,-7.220966 m -7.631247,1.477016 c 0.202322,-9.855094 9.697354,0.513247 8.041529,-9.026208"
       sodipodi:nodetypes="cccc" />
    <path
       style="fill:#27fe30;fill-opacity:1;fill-rule:nonzero;stroke:#fa09ff;stroke-width:0.2;stroke-opacity:0.97818202"
       d="M 5.9080631,26.750397 4.923386,35.85866 22.811687,36.350998 20.185882,22.565519 Z"
       id="path9"
       sodipodi:nodetypes="ccccc" />
    <path
       style="fill:#27fe30;fill-opacity:1;fill-rule:nonzero;stroke:#fa09ff;stroke-width:0.2;stroke-opacity:0.97818202"
       d="m 31.427614,23.632252 -3.446372,11.159675 12.554635,4.59516 2.461692,-9.272377"
       id="path10"
       sodipodi:nodetypes="cccc" />
    <path
       id="path11"
       style="fill:#27fe30;fill-opacity:1;fill-rule:nonzero;stroke:#fa09ff;stroke-width:0.2;stroke-opacity:0.97818202"
       d="M 72.537885,28.145356 74.0149,38.484465 62.03466,38.320352 M 57.603614,38.15624 56.783048,25.027212 72.209659,24.534873" />
    <path
       id="path12"
       style="fill:#27fe30;fill-opacity:1;fill-rule:nonzero;stroke:#fa09ff;stroke-width:0.2;stroke-opacity:0.97818202"
       d="M 93.216106,37.663901 C 90.689244,34.143003 88.282716,30.220993 83.20522,35.202209 m 9.518547,-10.667336 c -10.05715,3.131363 9.063723,2.661976 2.625806,10.010884 m -14.277819,-3.44637 c 0.535448,-5.260428 3.105221,-5.227057 6.236287,-4.431047"
       sodipodi:nodetypes="cccccc" />
    <path
       id="path13"
       style="fill:#27fe30;stroke:#fa09ff;stroke-width:0.2;stroke-opacity:0.97818202;fill-rule:nonzero;fill-opacity:1"
       d="M 50.218535,38.074184 53.336679,27.899187 M 48.74152,24.124591 47.674786,35.776604" />
    <path
       style="fill:#27fe69;fill-opacity:1;fill-rule:nonzero;stroke:#ff09ec;stroke-width:0.2;stroke-opacity:0.97818202"
       d="M 2.1661901,75.202559 C 7.5704862,98.403542 4.4976555,91.801049 15.828604,93.602544 12.556596,75.952947 14.178079,63.751014 2.5208892,89.049763 15.824504,90.037349 32.595093,92.130549 2.1661901,75.202559 Z"
       id="path14"
       sodipodi:nodetypes="cccc" />
    <path
       style="fill:#27fe69;fill-opacity:1;fill-rule:nonzero;stroke:#ff09ec;stroke-width:0.2;stroke-opacity:0.97818202"
       d="M 29.294145,93.462274 23.960477,77.543325 C 45.180223,83.45156 6.3149466,91.094786 29.294145,93.462274 Z"
       id="path15"
       sodipodi:nodetypes="ccc" />
    <path
       id="path18"
       style="fill:#27fe69;fill-opacity:1;fill-rule:nonzero;stroke:#ff09ec;stroke-width:0.2;stroke-opacity:0.97818202"
       d="m 46.936278,94.93929 c 3.512287,-50.302454 14.517807,22.77794 17.47802,-16.083061 M 43.571965,89.441508 56.044542,78.610059 68.845344,87.30804"
       sodipodi:nodetypes="ccccc" />
    <path
       id="path20"
       style="fill:#27fe69;fill-opacity:1;fill-rule:nonzero;stroke:#ff09ec;stroke-width:0.2;stroke-opacity:0.97818202"
       d="M 72.784052,94.69312 84.928406,72.209657 96.416307,75.82014 M 79.1024,97.729207 C 92.236151,40.582155 81.932794,110.17539 92.969936,91.657034 M 76.804818,75.902198 c 36.461992,13.20582 12.603765,15.49023 -6.728628,14.441933"
       sodipodi:nodetypes="ccccccc" />
    <path
       id="path21"
       style="fill:#27fe69;stroke:#ff09ec;stroke-width:0.2;stroke-opacity:0.97818202;fill-opacity:1;fill-rule:nonzero"
       d="m 33.889307,92.39554 c -1.884055,-10.579213 9.966457,1.891281 6.810682,-7.220966 m -7.631247,1.477016 c 0.202322,-9.855094 9.697354,0.513247 8.041529,-9.026208" />
  </g>
</svg>
