<?xml version="1.0" encoding="UTF-8" standalone="no"?>
<svg
   xmlns:dc="http://purl.org/dc/elements/1.1/"
   xmlns:cc="http://creativecommons.org/ns#"
   xmlns:rdf="http://www.w3.org/1999/02/22-rdf-syntax-ns#"
   xmlns:svg="http://www.w3.org/2000/svg"
   xmlns="http://www.w3.org/2000/svg"
   xmlns:sodipodi="http://sodipodi.sourceforge.net/DTD/sodipodi-0.dtd"
   xmlns:inkscape="http://www.inkscape.org/namespaces/inkscape"
   width="100mm"
   height="100mm"
   viewBox="0 0 100 100"
   version="1.1"
   id="svg8"
   sodipodi:docname="solidsquare2.svg"
   inkscape:version="1.0.1 (3bc2e813f5, 2020-09-07)">
  <defs
     id="defs2" />
  <sodipodi:namedview
     id="base"
     pagecolor="#ffffff"
     bordercolor="#666666"
     borderopacity="1.0"
     inkscape:pageopacity="0.0"
     inkscape:pageshadow="2"
     inkscape:zoom="1.4"
     inkscape:cx="365.8988"
     inkscape:cy="202.40707"
     inkscape:document-units="mm"
     inkscape:current-layer="layer1"
     inkscape:document-rotation="0"
     showgrid="false"
     inkscape:window-width="1680"
     inkscape:window-height="1027"
     inkscape:window-x="-8"
     inkscape:window-y="-8"
     inkscape:window-maximized="1"
     inkscape:snap-global="false"
     inkscape:snap-page="true"
     showguides="true"
     inkscape:guide-bbox="true"
     inkscape:lockguides="false" />
  <metadata
     id="metadata5">
    <rdf:RDF>
      <cc:Work
         rdf:about="">
        <dc:format>image/svg+xml</dc:format>
        <dc:type
           rdf:resource="http://purl.org/dc/dcmitype/StillImage" />
        <dc:title />
      </cc:Work>
    </rdf:RDF>
  </metadata>
  <g
     inkscape:label="Layer 1"
     inkscape:groupmode="layer"
     id="layer1"
     style="display:inline">
    <path
       id="rect832"
       style="fill:#00f34c;stroke:#3f43ff;stroke-width:0.190042;stroke-linecap:round;stroke-linejoin:round;fill-opacity:1;stroke-opacity:1"
       d="M 2.5836856,2.3723095 C 6.1448283,1.7675987 9.7369446,1.3520261 13.351758,1.0843928 17.298576,0.79217868 21.272451,0.67632683 25.262614,0.68321228 c 4.289456,0.0074 8.597734,0.15664404 12.911448,0.38110682 3.925405,0.2042571 7.855313,0.4708018 11.779639,0.7494342 3.315898,0.2354333 6.627812,0.4794965 9.929655,0.7019058 3.16853,0.2134295 6.327787,0.4069182 9.472396,0.5537044 3.99585,0.1865209 7.968047,0.2976325 11.905559,0.2784254 2.72027,-0.013269 5.423987,-0.088738 8.107512,-0.2445121 2.695876,-0.1564909 5.371374,-0.3940277 8.022807,-0.7309673 -0.204805,1.826596 -0.377094,3.6548305 -0.520453,5.4844807 -0.311714,3.9783578 -0.48664,7.9634098 -0.56162,11.9528658 -0.07407,3.941042 -0.05061,7.886383 0.03488,11.833815 0.07902,3.649067 0.21104,7.29992 0.367999,10.950817 0.158695,3.691275 0.342884,7.382594 0.523571,11.072156 0.139144,2.841276 0.276211,5.68151 0.397953,8.519879 0.07841,1.827 0.150385,3.653228 0.212522,5.478463 0.07224,2.121568 0.1311,4.241797 0.17109,6.36034 0.02721,1.442878 0.0457,2.884976 0.05366,4.326183 0.0076,1.358263 0.0057,2.715735 -0.0066,4.072324 -0.01906,2.04048 -0.06248,4.078964 -0.135443,6.115141 -0.06542,1.827555 -0.154631,3.653253 -0.271131,5.476867 -0.07651,1.197986 -0.164862,2.395072 -0.266003,3.591197 0,0 -2.925449,-1.145398 -5.106913,-1.145398 -2.181465,0 -4.920042,0.127267 -7.981872,0.127267 -3.061829,0 -6.524863,1.65446 -10.009013,1.65446 -3.48415,0 -7.897407,0.127271 -11.022585,0.127271 -3.125177,0 -5.426827,-0.636338 -8.868745,-0.636338 -3.441919,0 -7.306158,0.381805 -11.402674,0.381805 -4.096516,0 -8.530889,0.509066 -12.416244,0.509066 -3.885356,0 -7.496203,-0.127271 -11.149282,-0.127271 -3.653078,0 -7.834058,0.381805 -10.6424945,0.381805 -2.8088259,0 -6.2085119,-1.272667 -6.2085119,-1.272667 C 2.255315,95.35355 2.0078688,93.09109 1.8292268,90.822028 1.6992587,89.171209 1.6057091,87.516895 1.5439107,85.860078 c -0.061645,-1.652711 -0.091696,-3.307915 -0.094787,-4.964626 -0.00269,-1.441923 0.015045,-2.884989 0.050148,-4.328548 0.047306,-1.9454 0.126158,-3.891699 0.2290786,-5.83731 C 1.8230971,68.938492 1.9382426,67.147971 2.067954,65.359271 2.2000681,63.537446 2.6006846,59.93578 2.7568565,58.11904 3.0795624,54.365017 3.1870822,52.406367 3.531832,48.691166 3.8615194,45.138285 4.1764256,41.608432 4.4290006,38.111692 4.7137608,34.16937 4.9192922,30.26914 4.9774525,26.42546 5.0510071,21.564402 4.8888509,16.793792 4.3531465,12.142874 3.9705737,8.8214247 3.3974879,5.5610195 2.5836856,2.3723095 Z"
       sodipodi:nodetypes="csssssssscssssssssssssczzzzzzzzzcsssssssssssc" />
  </g>
</svg>
