<?xml version="1.0" encoding="UTF-8" standalone="no"?>
<svg
   xmlns:dc="http://purl.org/dc/elements/1.1/"
   xmlns:cc="http://creativecommons.org/ns#"
   xmlns:rdf="http://www.w3.org/1999/02/22-rdf-syntax-ns#"
   xmlns:svg="http://www.w3.org/2000/svg"
   xmlns="http://www.w3.org/2000/svg"
   xmlns:sodipodi="http://sodipodi.sourceforge.net/DTD/sodipodi-0.dtd"
   xmlns:inkscape="http://www.inkscape.org/namespaces/inkscape"
   width="100mm"
   height="100mm"
   viewBox="0 0 100 100"
   version="1.1"
   id="svg8"
   sodipodi:docname="spiral.svg"
   inkscape:version="1.0.1 (3bc2e813f5, 2020-09-07)">
  <defs
     id="defs2" />
  <sodipodi:namedview
     id="base"
     pagecolor="#ffffff"
     bordercolor="#666666"
     borderopacity="1.0"
     inkscape:pageopacity="0.0"
     inkscape:pageshadow="2"
     inkscape:zoom="1.979899"
     inkscape:cx="293.50779"
     inkscape:cy="192.08659"
     inkscape:document-units="mm"
     inkscape:current-layer="layer1"
     inkscape:document-rotation="0"
     showgrid="false"
     inkscape:window-width="1680"
     inkscape:window-height="1027"
     inkscape:window-x="-8"
     inkscape:window-y="-8"
     inkscape:window-maximized="1"
     inkscape:snap-global="true"
     inkscape:snap-page="true" />
  <metadata
     id="metadata5">
    <rdf:RDF>
      <cc:Work
         rdf:about="">
        <dc:format>image/svg+xml</dc:format>
        <dc:type
           rdf:resource="http://purl.org/dc/dcmitype/StillImage" />
        <dc:title />
      </cc:Work>
    </rdf:RDF>
  </metadata>
  <g
     inkscape:label="Layer 1"
     inkscape:groupmode="layer"
     id="layer1"
     style="display:inline">
    <path
       id="path831"
       style="fill:#fffe10;fill-opacity:1;fill-rule:evenodd;stroke:#1cfcff;stroke-width:0.264583px;stroke-linecap:butt;stroke-linejoin:miter;stroke-opacity:1"
       d="m 26.726952,27.127857 c -0.505151,0.347641 -0.717837,-0.509419 -0.577803,-0.839593 0.379485,-0.894752 1.602262,-0.824012 2.256989,-0.316011 1.171154,0.908693 1.001714,2.675365 0.05422,3.674384 -1.390485,1.4661 -3.764107,1.18767 -5.091781,-0.20757 -1.769579,-1.859636 -1.377321,-4.85854 0.469362,-6.509176 2.323862,-2.077157 5.955721,-1.568921 7.926571,0.731152 2.386965,2.785697 1.761656,7.054456 -0.992943,9.343967 -3.246199,2.69811 -8.154161,1.955104 -10.761363,-1.254734 -3.010117,-3.705885 -2.149027,-9.254514 1.516525,-12.178758 4.165034,-3.322713 10.355322,-2.343284 13.596154,1.778316 3.635725,4.623812 2.537782,11.45646 -2.040107,15.013549 -5.082324,3.949044 -12.557847,2.73246 -16.430945,-2.301898 -4.262595,-5.540637 -2.927276,-13.659427 2.563689,-17.84834 5.9988,-4.576328 14.761159,-3.122202 19.265737,2.825479 4.890201,6.456844 3.317212,15.863011 -3.087271,20.683132 C 28.479193,44.925946 18.429025,43.23405 13.293459,36.372695 7.7751875,29.000027 9.5860268,18.305701 16.904312,12.854771 24.734791,7.0223409 36.073406,8.9521526 41.839631,16.727415 47.986285,25.015654 45.937476,36.998666 37.705196,43.08013 28.959242,49.541062 16.331739,47.373236 9.935086,38.683904 3.1598296,29.48027 5.4466898,16.208199 14.593102,9.4963983 24.254384,2.4067777 38.171092,4.8126871 45.198004,14.416206 52.602023,24.535108 50.077052,39.09651 40.016406,46.438503 29.439906,54.156951 14.233758,51.512907 6.5767129,40.995113 -1.4561903,29.961038 1.3069362,14.110098 12.281893,6.1380252 23.773527,-2.2093562 40.269297,0.67286105 48.556377,12.104996 c 6.489422,8.952243 6.670759,21.301532 0.621217,30.524487 z"
       sodipodi:nodetypes="csssssssssssssssssssssssssscc" />
    <path
       id="path833"
       style="fill:#31ff10;fill-opacity:1;fill-rule:nonzero;stroke:#fa1cff;stroke-width:0.264583px;stroke-linecap:butt;stroke-linejoin:miter;stroke-opacity:1"
       d="m 71.8955,74.835464 c -0.50515,0.347642 -0.717836,-0.509418 -0.577802,-0.839593 0.379484,-0.894752 1.602261,-0.824011 2.256989,-0.316011 1.171154,0.908693 1.001714,2.675366 0.05422,3.674384 -1.390485,1.466101 -3.764107,1.18767 -5.09178,-0.20757 -1.76958,-1.859636 -1.377321,-4.85854 0.469361,-6.509176 2.323862,-2.077157 5.955721,-1.568921 7.926572,0.731152 2.386964,2.785697 1.761655,7.054456 -0.992943,9.343967 -3.2462,2.69811 -8.154161,1.955104 -10.761363,-1.254734 -3.010117,-3.705884 -2.149027,-9.254514 1.516525,-12.178758 4.165034,-3.322712 10.355321,-2.343284 13.596154,1.778316 3.635724,4.623812 2.537782,11.45646 -2.040107,15.01355 -5.082324,3.949043 -12.557848,2.73246 -16.430945,-2.301898 -4.262596,-5.540638 -2.927277,-13.659428 2.563689,-17.848341 5.9988,-4.576327 14.761158,-3.122201 19.265736,2.82548 4.890201,6.456844 3.317212,15.86301 -3.087271,20.683132 -6.914793,5.204189 -16.964961,3.512293 -22.100527,-3.349062 -5.518272,-7.372668 -3.707433,-18.066994 3.610852,-23.517923 7.830479,-5.832431 19.169094,-3.902619 24.935319,3.872643 6.146654,8.288239 4.097846,20.271251 -4.134434,26.352715 -8.745955,6.460932 -21.373458,4.293106 -27.77011,-4.396226 -6.775257,-9.203634 -4.488397,-22.475705 4.658016,-29.187505 9.661282,-7.089621 23.577989,-4.683712 30.604901,4.919807 7.40402,10.118902 4.879048,24.680305 -5.181598,32.022297 -10.576499,7.71845 -25.782648,5.074404 -33.439693,-5.443389 -8.032903,-11.034076 -5.269776,-26.885015 5.705181,-34.857089 11.491634,-8.347381 27.987403,-5.465164 36.274483,5.966972 6.489425,8.952242 6.670755,21.301531 0.621218,30.524486 z"
       sodipodi:nodetypes="csssssssssssssssssssssssssscc" />
  </g>
</svg>
