<?xml version="1.0" encoding="UTF-8" standalone="no"?>
<svg
   xmlns:dc="http://purl.org/dc/elements/1.1/"
   xmlns:cc="http://creativecommons.org/ns#"
   xmlns:rdf="http://www.w3.org/1999/02/22-rdf-syntax-ns#"
   xmlns:svg="http://www.w3.org/2000/svg"
   xmlns="http://www.w3.org/2000/svg"
   xmlns:sodipodi="http://sodipodi.sourceforge.net/DTD/sodipodi-0.dtd"
   xmlns:inkscape="http://www.inkscape.org/namespaces/inkscape"
   width="100mm"
   height="100mm"
   viewBox="0 0 100 100"
   version="1.1"
   id="svg8"
   sodipodi:docname="stitches4.svg"
   inkscape:version="1.0.1 (3bc2e813f5, 2020-09-07)">
  <defs
     id="defs2" />
  <sodipodi:namedview
     id="base"
     pagecolor="#ffffff"
     bordercolor="#666666"
     borderopacity="1.0"
     inkscape:pageopacity="0.0"
     inkscape:pageshadow="2"
     inkscape:zoom="1.979899"
     inkscape:cx="329.96995"
     inkscape:cy="215.92273"
     inkscape:document-units="mm"
     inkscape:current-layer="layer1"
     inkscape:document-rotation="0"
     showgrid="false"
     inkscape:window-width="1680"
     inkscape:window-height="1027"
     inkscape:window-x="-8"
     inkscape:window-y="-8"
     inkscape:window-maximized="1"
     inkscape:snap-global="true"
     inkscape:snap-page="true"
     showguides="true"
     inkscape:guide-bbox="true"
     inkscape:object-nodes="true"
     inkscape:snap-others="true"
     inkscape:snap-bbox="false"
     inkscape:snap-bbox-edge-midpoints="false"
     inkscape:snap-bbox-midpoints="false"
     inkscape:bbox-nodes="false"
     inkscape:snap-intersection-paths="true" />
  <metadata
     id="metadata5">
    <rdf:RDF>
      <cc:Work
         rdf:about="">
        <dc:format>image/svg+xml</dc:format>
        <dc:type
           rdf:resource="http://purl.org/dc/dcmitype/StillImage" />
        <dc:title />
      </cc:Work>
    </rdf:RDF>
  </metadata>
  <g
     inkscape:label="Layer 1"
     inkscape:groupmode="layer"
     id="layer1"
     style="display:inline">
    <path
       style="fill:none;fill-rule:evenodd;stroke:#00fe1f;stroke-width:0.256945px;stroke-linecap:butt;stroke-linejoin:miter;stroke-opacity:1"
       d="M 3.0480431,6.9465327 C 8.2812254,6.1688953 13.501738,5.5793493 18.703853,5.2629532 28.261961,4.6816225 37.757959,5.0224064 47.15631,6.8128901 V 15.49964"
       id="path831"
       sodipodi:nodetypes="cscc" />
    <path
       style="fill:none;fill-rule:evenodd;stroke:#00fe1f;stroke-width:0.256945px;stroke-linecap:butt;stroke-linejoin:miter;stroke-opacity:1"
       d="M 3.0480431,23.785467 C 11.946383,20.65904 20.839577,18.477318 29.808327,18.967515 c 5.744595,0.313977 11.520187,1.724124 17.347983,4.684309 v 8.68675"
       id="path833"
       sodipodi:nodetypes="cscc" />
    <path
       style="fill:none;fill-rule:evenodd;stroke:#00fe1f;stroke-width:0.256945px;stroke-linecap:butt;stroke-linejoin:miter;stroke-opacity:1"
       d="m 3.0480431,43.564533 c 5.1887654,-2.857658 10.3650759,-5.354924 15.5233459,-6.828426 7.226979,-2.064445 14.418548,-2.119311 21.559348,1.659781 2.347526,1.242371 4.689566,2.899098 7.025573,5.035002 v 8.68675"
       id="path835"
       sodipodi:nodetypes="csscc" />
    <path
       style="fill:none;fill-rule:evenodd;stroke:#00fe1f;stroke-width:0.256945px;stroke-linecap:butt;stroke-linejoin:miter;stroke-opacity:1"
       d="m 3.0480431,62.27446 c 4.9611032,-3.696968 9.7831499,-7.711156 14.8872329,-10.096523 3.583185,-1.674582 7.305367,-2.546421 11.312238,-1.942222 5.34718,0.806306 11.201362,4.241285 17.908796,11.905102 v 8.686751"
       id="path837"
       sodipodi:nodetypes="csscc" />
    <path
       style="fill:none;fill-rule:evenodd;stroke:#00fe1f;stroke-width:0.256945px;stroke-linecap:butt;stroke-linejoin:miter;stroke-opacity:1"
       d="M 3.0480431,87.800147 C 7.6449141,80.391906 12.2716,73.823844 17.022346,69.770802 c 5.580547,-4.760975 11.33228,-6.051617 17.407957,-1.157247 4.08046,3.287088 8.307037,9.363951 12.726007,19.052949 v 8.68675"
       id="path839"
       sodipodi:nodetypes="csscc" />
    <path
       style="fill:none;fill-rule:evenodd;stroke:#00d3fe;stroke-width:0.248272px;stroke-linecap:butt;stroke-linejoin:miter;stroke-opacity:1"
       d="m 55.161356,6.9437226 c 3.214158,0.3350058 6.420532,0.6289602 9.64855,0.8501927 10.009331,0.6859903 20.226762,0.6727764 31.529609,-0.9838439 V 15.49738"
       id="path836"
       sodipodi:nodetypes="cscc" />
    <path
       style="fill:none;fill-rule:evenodd;stroke:#00d3fe;stroke-width:0.248272px;stroke-linecap:butt;stroke-linejoin:miter;stroke-opacity:1"
       d="m 55.161356,23.78374 c 6.955468,1.751016 14.043195,3.687391 22.062986,3.687391 5.786374,0 12.057961,-1.008037 19.115173,-3.821042 v 8.687309"
       id="path838"
       sodipodi:nodetypes="cscc" />
    <path
       style="fill:none;fill-rule:evenodd;stroke:#00d3fe;stroke-width:0.248272px;stroke-linecap:butt;stroke-linejoin:miter;stroke-opacity:1"
       d="m 55.161356,43.564079 c 4.920278,2.220086 9.843121,4.281909 14.803511,5.463448 8.617106,2.052551 17.347524,1.448578 26.374648,-5.597099 v 8.687309"
       id="path840"
       sodipodi:nodetypes="cscc" />
    <path
       style="fill:none;fill-rule:evenodd;stroke:#00d3fe;stroke-width:0.248272px;stroke-linecap:butt;stroke-linejoin:miter;stroke-opacity:1"
       d="m 55.161356,62.275211 c 7.892079,2.943416 14.04979,14.812288 25.968443,10.983563 4.231813,-1.35942 9.189887,-4.697775 15.209716,-11.117215 v 8.68731"
       id="path842"
       sodipodi:nodetypes="cscc" />
    <path
       style="fill:none;fill-rule:evenodd;stroke:#00d3fe;stroke-width:0.248272px;stroke-linecap:butt;stroke-linejoin:miter;stroke-opacity:1"
       d="m 55.161356,76.042681 c 5.701573,4.475524 10.712849,14.63163 18.09968,16.633617 5.762208,1.561679 12.969944,-1.838434 23.078479,-16.767268 v 8.687309"
       id="path844"
       sodipodi:nodetypes="cscc" />
  </g>
</svg>
