<?xml version="1.0" encoding="UTF-8" standalone="no"?>
<svg
   width="100mm"
   height="100mm"
   viewBox="0 0 100 100"
   version="1.1"
   id="svg8"
   sodipodi:docname="text.svg"
   inkscape:version="1.3.2 (091e20e, 2023-11-25, custom)"
   xmlns:inkscape="http://www.inkscape.org/namespaces/inkscape"
   xmlns:sodipodi="http://sodipodi.sourceforge.net/DTD/sodipodi-0.dtd"
   xmlns="http://www.w3.org/2000/svg"
   xmlns:svg="http://www.w3.org/2000/svg"
   xmlns:rdf="http://www.w3.org/1999/02/22-rdf-syntax-ns#"
   xmlns:cc="http://creativecommons.org/ns#"
   xmlns:dc="http://purl.org/dc/elements/1.1/">
  <defs
     id="defs2" />
  <sodipodi:namedview
     id="base"
     pagecolor="#ffffff"
     bordercolor="#666666"
     borderopacity="1.0"
     inkscape:pageopacity="0.0"
     inkscape:pageshadow="2"
     inkscape:zoom="1.14"
     inkscape:cx="313.59649"
     inkscape:cy="232.01754"
     inkscape:document-units="mm"
     inkscape:current-layer="layer1"
     inkscape:document-rotation="0"
     showgrid="false"
     inkscape:window-width="1920"
     inkscape:window-height="1027"
     inkscape:window-x="-8"
     inkscape:window-y="-8"
     inkscape:window-maximized="1"
     inkscape:snap-global="true"
     inkscape:snap-bbox="true"
     inkscape:bbox-nodes="true"
     inkscape:bbox-paths="true"
     inkscape:snap-page="true"
     inkscape:showpageshadow="2"
     inkscape:pagecheckerboard="0"
     inkscape:deskcolor="#d1d1d1" />
  <metadata
     id="metadata5">
    <rdf:RDF>
      <cc:Work
         rdf:about="">
        <dc:format>image/svg+xml</dc:format>
        <dc:type
           rdf:resource="http://purl.org/dc/dcmitype/StillImage" />
        <dc:title />
      </cc:Work>
    </rdf:RDF>
  </metadata>
  <g
     inkscape:label="Layer 1"
     inkscape:groupmode="layer"
     id="layer1"
     style="display:inline">
    <text
       xml:space="preserve"
       style="font-size:7.05556px;font-family:Calibri;-inkscape-font-specification:Calibri;white-space:pre;inline-size:68.7591;fill:none;stroke:#09ff90;stroke-width:0.2;stroke-opacity:0.97818202;fill-opacity:1"
       x="113.42612"
       y="13.925439"
       id="text1"
       transform="translate(-98.870614,-3.7134502)"><tspan
         x="113.42612"
         y="13.925439"
         id="tspan4"><tspan
           style="text-align:center;text-anchor:middle"
           id="tspan3">The quick brown fox </tspan></tspan><tspan
         x="113.42612"
         y="22.744889"
         id="tspan6"><tspan
           style="text-align:center;text-anchor:middle"
           id="tspan5">jumps over the lazy dog</tspan></tspan></text>
    <text
       xml:space="preserve"
       style="font-size:7.05556px;font-family:Calibri;-inkscape-font-specification:Calibri;white-space:pre;inline-size:68.7591;fill:#2779fe;stroke:none;stroke-width:0.2;stroke-opacity:0.978182;fill-opacity:1"
       x="113.42612"
       y="13.925439"
       id="text2"
       transform="translate(-98.870614,14.621711)"><tspan
         x="113.42612"
         y="13.925439"
         id="tspan8"><tspan
           style="text-align:center;text-anchor:middle"
           id="tspan7">The quick brown fox </tspan></tspan><tspan
         x="113.42612"
         y="22.744889"
         id="tspan10"><tspan
           style="text-align:center;text-anchor:middle"
           id="tspan9">jumps over the lazy dog</tspan></tspan></text>
    <path
       style="font-size:7.05556px;font-family:Calibri;-inkscape-font-specification:Calibri;text-align:center;text-anchor:middle;white-space:pre;inline-size:68.7591;fill:none;stroke:#09ff90;stroke-width:0.2;stroke-opacity:0.978182"
       d="m 122.28955,9.7224197 q 0,0.065457 -0.007,0.1136882 -0.007,0.048231 -0.0241,0.079237 -0.0138,0.027561 -0.0379,0.041341 -0.0207,0.01378 -0.0482,0.01378 h -1.25401 v 3.8653993 q 0,0.02756 -0.0138,0.04823 -0.0138,0.02067 -0.0482,0.03445 -0.0345,0.01033 -0.093,0.01722 -0.0551,0.01033 -0.14125,0.01033 -0.0827,0 -0.14125,-0.01033 -0.0586,-0.0069 -0.093,-0.01722 -0.0345,-0.01378 -0.0482,-0.03445 -0.0138,-0.02067 -0.0138,-0.04823 V 9.9704667 h -1.25401 q -0.0276,0 -0.0517,-0.01378 -0.0207,-0.01378 -0.0345,-0.041341 -0.0138,-0.031006 -0.0241,-0.079237 -0.007,-0.048231 -0.007,-0.1136882 0,-0.065457 0.007,-0.1136883 0.0103,-0.051676 0.0241,-0.082682 0.0138,-0.031006 0.0345,-0.044786 0.0241,-0.01378 0.0517,-0.01378 h 3.10058 q 0.0276,0 0.0482,0.01378 0.0241,0.01378 0.0379,0.044786 0.0172,0.031006 0.0241,0.082682 0.007,0.048231 0.007,0.1136883 z m 3.24873,4.1168913 q 0,0.02756 -0.0138,0.04823 -0.0138,0.01722 -0.0448,0.03101 -0.031,0.01378 -0.0861,0.02067 -0.0551,0.0069 -0.1378,0.0069 -0.0861,0 -0.14125,-0.0069 -0.0551,-0.0069 -0.0861,-0.02067 -0.031,-0.01378 -0.0448,-0.03101 -0.0138,-0.02067 -0.0138,-0.04823 v -1.815566 q 0,-0.265273 -0.0413,-0.427192 -0.0413,-0.16192 -0.12058,-0.279053 -0.0792,-0.117133 -0.2067,-0.179145 -0.12402,-0.06201 -0.28939,-0.06201 -0.2136,0 -0.42719,0.151584 -0.2136,0.151585 -0.44786,0.444418 v 2.166966 q 0,0.02756 -0.0138,0.04823 -0.0138,0.01722 -0.0448,0.03101 -0.031,0.01378 -0.0861,0.02067 -0.0551,0.0069 -0.14125,0.0069 -0.0827,0 -0.1378,-0.0069 -0.0551,-0.0069 -0.0896,-0.02067 -0.031,-0.01378 -0.0448,-0.03101 -0.0103,-0.02067 -0.0103,-0.04823 V 9.2366609 q 0,-0.027561 0.0103,-0.048231 0.0138,-0.020671 0.0448,-0.034451 0.0344,-0.01378 0.0896,-0.020671 0.0551,-0.00689 0.1378,-0.00689 0.0861,0 0.14125,0.00689 0.0551,0.00689 0.0861,0.020671 0.031,0.01378 0.0448,0.034451 0.0138,0.020671 0.0138,0.048231 v 1.8569081 q 0.2446,-0.258383 0.49264,-0.382406 0.24805,-0.127469 0.49954,-0.127469 0.31006,0 0.52021,0.106798 0.2136,0.103353 0.34451,0.279053 0.13092,0.1757 0.18604,0.413412 0.0586,0.234266 0.0586,0.568441 z m 3.6828,-1.684652 q 0,0.134358 -0.0689,0.192925 -0.0654,0.05512 -0.15158,0.05512 h -2.03261 q 0,0.258382 0.0517,0.465088 0.0517,0.206706 0.17225,0.354845 0.12058,0.148139 0.31351,0.227376 0.19292,0.07924 0.47197,0.07924 0.22049,0 0.39275,-0.03445 0.17225,-0.0379 0.29627,-0.08268 0.12747,-0.04479 0.20671,-0.07924 0.0827,-0.0379 0.12402,-0.0379 0.0241,0 0.0413,0.01378 0.0207,0.01034 0.031,0.03445 0.0103,0.02412 0.0138,0.0689 0.007,0.04134 0.007,0.103353 0,0.04479 -0.003,0.07924 -0.003,0.03101 -0.0103,0.05857 -0.003,0.02412 -0.0172,0.04479 -0.0103,0.02067 -0.031,0.04134 -0.0172,0.01722 -0.11024,0.06201 -0.093,0.04134 -0.24116,0.08268 -0.14814,0.04134 -0.34451,0.07235 -0.19293,0.03445 -0.41341,0.03445 -0.38241,0 -0.6718,-0.106798 -0.28594,-0.106798 -0.48231,-0.316949 -0.19637,-0.210151 -0.29628,-0.5271 -0.0999,-0.316949 -0.0999,-0.737251 0,-0.399631 0.10336,-0.71658 0.10335,-0.320395 0.29628,-0.540881 0.19637,-0.223931 0.47197,-0.341064 0.27561,-0.120579 0.61668,-0.120579 0.36518,0 0.62011,0.117133 0.25839,0.117134 0.42375,0.316949 0.16537,0.196371 0.24116,0.465089 0.0792,0.265272 0.0792,0.568441 z m -0.57188,-0.16881 q 0.0103,-0.447863 -0.19982,-0.7028 -0.2067,-0.254937 -0.61667,-0.254937 -0.21015,0 -0.36863,0.07924 -0.15847,0.07924 -0.26527,0.210151 -0.1068,0.130914 -0.16536,0.306614 -0.0586,0.172254 -0.0655,0.361735 z m 5.68785,3.083362 q 0,0.02756 -0.0172,0.04823 -0.0138,0.02067 -0.0448,0.03445 -0.031,0.01378 -0.0861,0.02067 -0.0551,0.0069 -0.13781,0.0069 -0.0861,0 -0.14125,-0.0069 -0.0517,-0.0069 -0.0861,-0.02067 -0.0345,-0.01378 -0.0482,-0.03445 -0.0103,-0.02067 -0.0103,-0.04823 v -1.58819 q -0.14125,0.141249 -0.26872,0.241157 -0.12747,0.09646 -0.25149,0.158475 -0.12402,0.05857 -0.25149,0.08268 -0.12403,0.02756 -0.25839,0.02756 -0.33762,0 -0.57533,-0.130914 -0.23771,-0.134359 -0.38929,-0.35829 -0.14814,-0.227377 -0.21704,-0.530545 -0.0689,-0.306614 -0.0689,-0.644233 0,-0.399632 0.0861,-0.720026 0.0861,-0.323839 0.25494,-0.551216 0.17225,-0.227376 0.4203,-0.347954 0.25149,-0.124024 0.57878,-0.124024 0.1378,0 0.25838,0.03101 0.12058,0.02756 0.23771,0.09302 0.12058,0.06201 0.24116,0.165364 0.12402,0.09991 0.26872,0.241157 v -0.375516 q 0,-0.03101 0.0138,-0.04823 0.0138,-0.02067 0.0448,-0.03445 0.031,-0.01378 0.0792,-0.01722 0.0482,-0.0069 0.12058,-0.0069 0.0689,0 0.11713,0.0069 0.0482,0.0034 0.0758,0.01722 0.031,0.01378 0.0413,0.03445 0.0138,0.01723 0.0138,0.04823 z m -0.57188,-3.410646 q -0.23082,-0.285944 -0.44786,-0.434083 -0.2136,-0.151584 -0.44787,-0.151584 -0.21704,0 -0.36862,0.103353 -0.15159,0.103353 -0.24805,0.272163 -0.093,0.168809 -0.1378,0.382405 -0.0413,0.213597 -0.0413,0.434083 0,0.237712 0.0344,0.461643 0.0379,0.223931 0.12747,0.396186 0.0896,0.172255 0.23771,0.279053 0.14814,0.103353 0.37207,0.103353 0.11369,0 0.21704,-0.03101 0.1068,-0.03101 0.21704,-0.103353 0.11024,-0.07235 0.23082,-0.186035 0.12058,-0.117133 0.25494,-0.285943 z m 4.27881,2.180746 q 0,0.02756 -0.0138,0.04823 -0.0103,0.01722 -0.0413,0.03101 -0.031,0.01378 -0.0827,0.02067 -0.0482,0.0069 -0.12058,0.0069 -0.0792,0 -0.13092,-0.0069 -0.0482,-0.0069 -0.0792,-0.02067 -0.0276,-0.01378 -0.0379,-0.03101 -0.0103,-0.02067 -0.0103,-0.04823 v -0.409966 q -0.26528,0.292833 -0.52366,0.427192 -0.25838,0.134359 -0.52365,0.134359 -0.31006,0 -0.52366,-0.103353 -0.21015,-0.103353 -0.34106,-0.279053 -0.13092,-0.179145 -0.18948,-0.413412 -0.0551,-0.237712 -0.0551,-0.575331 v -1.881024 q 0,-0.02756 0.0103,-0.04479 0.0138,-0.02067 0.0482,-0.03445 0.0345,-0.01722 0.0896,-0.02067 0.0551,-0.0069 0.13781,-0.0069 0.0827,0 0.1378,0.0069 0.0551,0.0034 0.0861,0.02067 0.0344,0.01378 0.0482,0.03445 0.0138,0.01723 0.0138,0.04479 v 1.805232 q 0,0.272162 0.0379,0.437527 0.0413,0.16192 0.12058,0.279053 0.0827,0.113688 0.2067,0.179145 0.12402,0.06201 0.28939,0.06201 0.2136,0 0.42375,-0.151584 0.21359,-0.151585 0.4513,-0.444418 v -2.166967 q 0,-0.02756 0.0103,-0.04479 0.0138,-0.02067 0.0482,-0.03445 0.0344,-0.01722 0.0861,-0.02067 0.0551,-0.0069 0.14125,-0.0069 0.0827,0 0.1378,0.0069 0.0551,0.0034 0.0861,0.02067 0.031,0.01378 0.0448,0.03445 0.0172,0.01723 0.0172,0.04479 z m 1.6192,0 q 0,0.02756 -0.0138,0.04823 -0.0138,0.01722 -0.0448,0.03101 -0.031,0.01378 -0.0861,0.02067 -0.0551,0.0069 -0.14125,0.0069 -0.0827,0 -0.1378,-0.0069 -0.0551,-0.0069 -0.0896,-0.02067 -0.031,-0.01378 -0.0448,-0.03101 -0.0103,-0.02067 -0.0103,-0.04823 v -3.100588 q 0,-0.02412 0.0103,-0.04479 0.0138,-0.02067 0.0448,-0.03445 0.0345,-0.01378 0.0896,-0.02067 0.0551,-0.0069 0.1378,-0.0069 0.0861,0 0.14125,0.0069 0.0551,0.0069 0.0861,0.02067 0.031,0.01378 0.0448,0.03445 0.0138,0.02067 0.0138,0.04479 z m 0.0654,-4.1478972 q 0,0.1998157 -0.0758,0.2721627 -0.0758,0.072347 -0.27905,0.072347 -0.19982,0 -0.27561,-0.068902 -0.0724,-0.072347 -0.0724,-0.2687176 0,-0.1998157 0.0758,-0.2721627 0.0758,-0.072347 0.27906,-0.072347 0.19981,0 0.27216,0.072347 0.0758,0.068902 0.0758,0.2652725 z m 3.21428,3.6759192 q 0,0.05857 -0.003,0.103353 -0.003,0.04134 -0.0138,0.07235 -0.007,0.02756 -0.0207,0.05168 -0.0103,0.02067 -0.0551,0.06546 -0.0413,0.04134 -0.14469,0.106798 -0.10336,0.06201 -0.23427,0.113689 -0.12747,0.04823 -0.27905,0.07924 -0.15159,0.03101 -0.31351,0.03101 -0.33417,0 -0.59255,-0.110243 -0.25839,-0.110244 -0.43409,-0.320394 -0.17225,-0.213597 -0.26527,-0.52021 -0.0896,-0.310059 -0.0896,-0.713135 0,-0.458198 0.11024,-0.785483 0.11369,-0.330729 0.30662,-0.54088 0.19637,-0.210151 0.45819,-0.310059 0.26528,-0.103353 0.57189,-0.103353 0.14814,0 0.28594,0.02756 0.14125,0.02756 0.25839,0.07235 0.11713,0.04479 0.2067,0.103353 0.093,0.05857 0.13436,0.09991 0.0413,0.04134 0.0551,0.06546 0.0172,0.02412 0.0276,0.05857 0.0103,0.03101 0.0138,0.07235 0.003,0.04134 0.003,0.103353 0,0.134359 -0.031,0.189481 -0.031,0.05168 -0.0758,0.05168 -0.0517,0 -0.12058,-0.05512 -0.0655,-0.05857 -0.16881,-0.127469 -0.10335,-0.0689 -0.25149,-0.124024 -0.14469,-0.05857 -0.34451,-0.05857 -0.40997,0 -0.63045,0.316949 -0.21704,0.313504 -0.21704,0.912951 0,0.299723 0.0551,0.5271 0.0586,0.223931 0.16881,0.375515 0.11024,0.151585 0.26871,0.227377 0.16192,0.07235 0.36863,0.07235 0.19637,0 0.34451,-0.06201 0.14814,-0.06201 0.25494,-0.134359 0.11024,-0.07579 0.18259,-0.134359 0.0758,-0.06201 0.11713,-0.06201 0.0241,0 0.0413,0.01378 0.0172,0.01378 0.0276,0.04823 0.0138,0.03101 0.0172,0.08268 0.007,0.04823 0.007,0.117133 z m 3.3004,0.468533 q 0,0.02756 -0.0138,0.04823 -0.0138,0.02067 -0.0482,0.03445 -0.031,0.01378 -0.0896,0.02067 -0.0586,0.0069 -0.14814,0.0069 -0.093,0 -0.15503,-0.0069 -0.0586,-0.0034 -0.0999,-0.01378 -0.0413,-0.01378 -0.0689,-0.03445 -0.0241,-0.02412 -0.0448,-0.05512 l -1.30913,-1.715658 v 1.719103 q 0,0.02756 -0.0138,0.04823 -0.0138,0.01722 -0.0448,0.03101 -0.031,0.01378 -0.0861,0.02067 -0.0551,0.0069 -0.14125,0.0069 -0.0827,0 -0.1378,-0.0069 -0.0551,-0.0069 -0.0896,-0.02067 -0.031,-0.01378 -0.0448,-0.03101 -0.0103,-0.02067 -0.0103,-0.04823 V 9.2366609 q 0,-0.027561 0.0103,-0.048231 0.0138,-0.020671 0.0448,-0.034451 0.0344,-0.01378 0.0896,-0.020671 0.0551,-0.00689 0.1378,-0.00689 0.0861,0 0.14125,0.00689 0.0551,0.00689 0.0861,0.020671 0.031,0.01378 0.0448,0.034451 0.0138,0.020671 0.0138,0.048231 V 12.04097 l 1.17133,-1.288466 q 0.0276,-0.03445 0.0586,-0.05512 0.031,-0.02412 0.0723,-0.0379 0.0448,-0.01722 0.10336,-0.02067 0.0586,-0.0069 0.14125,-0.0069 0.0861,0 0.14469,0.0069 0.0586,0.0034 0.093,0.01722 0.0379,0.01033 0.0517,0.03101 0.0172,0.01723 0.0172,0.04823 0,0.04134 -0.0241,0.08268 -0.0207,0.04134 -0.0723,0.09646 l -1.1231,1.123102 1.2609,1.636422 q 0.0448,0.05857 0.062,0.09646 0.0207,0.03445 0.0207,0.06546 z m 5.10908,-1.58819 q 0,0.403077 -0.0896,0.726916 -0.0861,0.320394 -0.25838,0.54777 -0.16881,0.227377 -0.41686,0.347955 -0.24805,0.120579 -0.56844,0.120579 -0.14814,0 -0.27561,-0.03101 -0.12402,-0.02756 -0.2446,-0.09302 -0.12058,-0.06546 -0.24116,-0.165364 -0.12058,-0.09991 -0.25493,-0.241157 v 0.37896 q 0,0.02756 -0.0138,0.04823 -0.0138,0.02067 -0.0448,0.03445 -0.031,0.01033 -0.0792,0.01722 -0.0448,0.0069 -0.11713,0.0069 -0.0689,0 -0.11713,-0.0069 -0.0482,-0.0069 -0.0792,-0.01722 -0.031,-0.01378 -0.0413,-0.03445 -0.0103,-0.02067 -0.0103,-0.04823 V 9.2366609 q 0,-0.027561 0.0103,-0.048231 0.0138,-0.020671 0.0448,-0.034451 0.0344,-0.01378 0.0896,-0.020671 0.0551,-0.00689 0.1378,-0.00689 0.0861,0 0.14125,0.00689 0.0551,0.00689 0.0861,0.020671 0.031,0.01378 0.0448,0.034451 0.0138,0.020671 0.0138,0.048231 v 1.8569081 q 0.13781,-0.141249 0.26527,-0.237712 0.13092,-0.09646 0.25494,-0.15503 0.12403,-0.06201 0.24805,-0.08957 0.12402,-0.02756 0.26183,-0.02756 0.33762,0 0.57533,0.134359 0.24115,0.134359 0.38929,0.361735 0.15159,0.223932 0.22049,0.5271 0.0689,0.303169 0.0689,0.640788 z m -0.59944,0.06546 q 0,-0.237712 -0.0379,-0.461643 -0.0344,-0.223931 -0.12402,-0.396186 -0.0896,-0.172255 -0.23772,-0.275608 -0.14814,-0.106798 -0.36862,-0.106798 -0.11024,0 -0.21704,0.03101 -0.1068,0.03101 -0.21704,0.103353 -0.11025,0.07235 -0.23083,0.186035 -0.11713,0.113688 -0.25149,0.285943 v 1.23679 q 0.23427,0.285943 0.44787,0.437528 0.21359,0.148139 0.44441,0.148139 0.2136,0 0.36518,-0.103353 0.15159,-0.103353 0.24461,-0.272163 0.0965,-0.172255 0.1378,-0.382406 0.0448,-0.213596 0.0448,-0.430637 z m 3.26595,-1.371149 q 0,0.07579 -0.003,0.127469 -0.003,0.05168 -0.0138,0.08268 -0.0103,0.02756 -0.0276,0.04479 -0.0138,0.01378 -0.0413,0.01378 -0.0276,0 -0.0689,-0.01378 -0.0379,-0.01722 -0.0896,-0.03101 -0.0482,-0.01723 -0.11025,-0.03101 -0.062,-0.01378 -0.13435,-0.01378 -0.0861,0 -0.16881,0.03445 -0.0827,0.03445 -0.1757,0.113689 -0.0896,0.07924 -0.18948,0.210151 -0.0999,0.130913 -0.22049,0.320394 v 2.039497 q 0,0.02756 -0.0138,0.04823 -0.0138,0.01722 -0.0448,0.03101 -0.031,0.01378 -0.0861,0.02067 -0.0551,0.0069 -0.14124,0.0069 -0.0827,0 -0.13781,-0.0069 -0.0551,-0.0069 -0.0896,-0.02067 -0.031,-0.01378 -0.0448,-0.03101 -0.0103,-0.02067 -0.0103,-0.04823 v -3.100588 q 0,-0.02756 0.0103,-0.04479 0.0103,-0.02067 0.0413,-0.03445 0.031,-0.01722 0.0792,-0.02067 0.0482,-0.0069 0.12747,-0.0069 0.0758,0 0.12402,0.0069 0.0517,0.0034 0.0792,0.02067 0.0276,0.01378 0.0379,0.03445 0.0138,0.01723 0.0138,0.04479 v 0.451308 q 0.12747,-0.186035 0.23771,-0.303168 0.11369,-0.117134 0.2136,-0.18259 0.0999,-0.0689 0.19637,-0.09302 0.0999,-0.02756 0.19981,-0.02756 0.0448,0 0.0999,0.0069 0.0586,0.0034 0.12058,0.01723 0.062,0.01378 0.11024,0.03101 0.0517,0.01722 0.0724,0.03445 0.0207,0.01723 0.0276,0.03445 0.007,0.01378 0.0103,0.0379 0.007,0.02412 0.007,0.07235 0.003,0.04479 0.003,0.124023 z m 3.41754,1.312582 q 0,0.378961 -0.0999,0.699355 -0.0999,0.316949 -0.29973,0.547771 -0.19637,0.230821 -0.49609,0.361735 -0.29628,0.127469 -0.68902,0.127469 -0.38241,0 -0.66835,-0.113688 -0.2825,-0.113689 -0.47198,-0.33073 -0.18948,-0.217041 -0.28249,-0.5271 -0.093,-0.310059 -0.093,-0.7028 0,-0.37896 0.0965,-0.695909 0.0999,-0.320395 0.29628,-0.551216 0.19981,-0.230822 0.49609,-0.35829 0.29628,-0.127469 0.69247,-0.127469 0.3824,0 0.6649,0.113688 0.28594,0.113689 0.47543,0.33073 0.18948,0.217041 0.28249,0.5271 0.0965,0.310058 0.0965,0.699354 z m -0.59945,0.0379 q 0,-0.251493 -0.0482,-0.475424 -0.0448,-0.223931 -0.15159,-0.392741 -0.10679,-0.16881 -0.28939,-0.265273 -0.18259,-0.09991 -0.45475,-0.09991 -0.25149,0 -0.43408,0.08957 -0.17915,0.08957 -0.29628,0.254937 -0.11713,0.16192 -0.1757,0.385851 -0.0551,0.223932 -0.0551,0.489204 0,0.254937 0.0448,0.478869 0.0482,0.223931 0.15503,0.392741 0.11024,0.165365 0.29283,0.265272 0.18259,0.09646 0.45475,0.09646 0.24805,0 0.43064,-0.08957 0.18259,-0.08957 0.29972,-0.251493 0.11714,-0.161919 0.17226,-0.38585 0.0551,-0.223932 0.0551,-0.492649 z m 5.74642,-1.56063 q 0,0.02412 -0.007,0.05857 -0.007,0.03445 -0.0241,0.08613 l -0.91295,2.945559 q -0.0103,0.0379 -0.0345,0.06201 -0.0207,0.02412 -0.062,0.0379 -0.0379,0.01378 -0.10679,0.01722 -0.0689,0.0069 -0.17226,0.0069 -0.1068,0 -0.17914,-0.0069 -0.0724,-0.0069 -0.11714,-0.02067 -0.0413,-0.01378 -0.062,-0.0379 -0.0207,-0.02412 -0.031,-0.05857 l -0.65112,-2.249649 -0.007,-0.03101 -0.007,0.03101 -0.60289,2.249649 q -0.0103,0.0379 -0.0345,0.06201 -0.0207,0.02412 -0.0655,0.0379 -0.0448,0.01378 -0.11713,0.01722 -0.0689,0.0069 -0.17226,0.0069 -0.1068,0 -0.1757,-0.0069 -0.0654,-0.0069 -0.11024,-0.02067 -0.0413,-0.01378 -0.062,-0.0379 -0.0207,-0.02412 -0.031,-0.05857 l -0.90606,-2.945559 q -0.0172,-0.05168 -0.0241,-0.08613 -0.007,-0.03445 -0.007,-0.05857 0,-0.03101 0.0138,-0.04823 0.0138,-0.02067 0.0448,-0.03101 0.0344,-0.01378 0.0896,-0.01723 0.0551,-0.0034 0.13436,-0.0034 0.0965,0 0.15503,0.0069 0.0586,0.0034 0.0896,0.01722 0.031,0.01033 0.0448,0.03445 0.0138,0.02067 0.0241,0.05168 l 0.74758,2.556262 0.007,0.03101 0.007,-0.03101 0.68558,-2.556262 q 0.007,-0.03101 0.0207,-0.05168 0.0172,-0.02412 0.0482,-0.03445 0.031,-0.01378 0.0827,-0.01722 0.0551,-0.0069 0.14125,-0.0069 0.0827,0 0.13436,0.0069 0.0551,0.0034 0.0861,0.01722 0.031,0.01033 0.0448,0.03101 0.0138,0.02067 0.0207,0.04823 l 0.7407,2.563153 0.007,0.03101 0.003,-0.03101 0.73725,-2.556262 q 0.007,-0.03101 0.0207,-0.05168 0.0172,-0.02412 0.0482,-0.03445 0.0344,-0.01378 0.0896,-0.01722 0.0586,-0.0069 0.14814,-0.0069 0.0827,0 0.13091,0.0034 0.0517,0.0034 0.0792,0.01723 0.031,0.01378 0.0413,0.03101 0.0138,0.01722 0.0138,0.04823 z m 3.3762,3.107478 q 0,0.02756 -0.0138,0.04823 -0.0138,0.01722 -0.0448,0.03101 -0.031,0.01378 -0.0861,0.02067 -0.0551,0.0069 -0.1378,0.0069 -0.0861,0 -0.14125,-0.0069 -0.0551,-0.0069 -0.0861,-0.02067 -0.031,-0.01378 -0.0448,-0.03101 -0.0138,-0.02067 -0.0138,-0.04823 v -1.815566 q 0,-0.265273 -0.0413,-0.427192 -0.0413,-0.16192 -0.12057,-0.279053 -0.0792,-0.117133 -0.20671,-0.179145 -0.12402,-0.06201 -0.28939,-0.06201 -0.21359,0 -0.42719,0.151584 -0.2136,0.151585 -0.44786,0.444418 v 2.166966 q 0,0.02756 -0.0138,0.04823 -0.0138,0.01722 -0.0448,0.03101 -0.031,0.01378 -0.0861,0.02067 -0.0551,0.0069 -0.14125,0.0069 -0.0827,0 -0.1378,-0.0069 -0.0551,-0.0069 -0.0896,-0.02067 -0.031,-0.01378 -0.0448,-0.03101 -0.0103,-0.02067 -0.0103,-0.04823 v -3.100588 q 0,-0.02756 0.0103,-0.04479 0.0103,-0.02067 0.0413,-0.03445 0.031,-0.01722 0.0792,-0.02067 0.0482,-0.0069 0.12747,-0.0069 0.0758,0 0.12402,0.0069 0.0517,0.0034 0.0792,0.02067 0.0276,0.01378 0.0379,0.03445 0.0138,0.01723 0.0138,0.04479 v 0.409967 q 0.26182,-0.292833 0.52021,-0.427192 0.26182,-0.137804 0.5271,-0.137804 0.31005,0 0.5202,0.106798 0.2136,0.103353 0.34451,0.279053 0.13092,0.1757 0.18604,0.413412 0.0586,0.234266 0.0586,0.564996 z m 4.33048,-4.3752737 q 0,0.065457 -0.007,0.1067981 -0.007,0.037896 -0.0172,0.062012 -0.007,0.024116 -0.0207,0.034451 -0.0138,0.00689 -0.0344,0.00689 -0.0241,0 -0.062,-0.01378 -0.0345,-0.017225 -0.0861,-0.034451 -0.0517,-0.02067 -0.12403,-0.034451 -0.0689,-0.017226 -0.16191,-0.017226 -0.12747,0 -0.21705,0.041341 -0.0896,0.041341 -0.14469,0.1309138 -0.0551,0.086127 -0.0792,0.2273764 -0.0241,0.1378042 -0.0241,0.3376192 v 0.33762 h 0.69246 q 0.0276,0 0.0448,0.01378 0.0207,0.01034 0.0345,0.04134 0.0172,0.02756 0.0241,0.07235 0.0103,0.04479 0.0103,0.110243 0,0.124023 -0.031,0.179145 -0.031,0.05512 -0.0827,0.05512 h -0.69246 v 2.718182 q 0,0.02756 -0.0138,0.04823 -0.0138,0.01722 -0.0482,0.03101 -0.031,0.01378 -0.0861,0.02067 -0.0551,0.0069 -0.13781,0.0069 -0.0827,0 -0.1378,-0.0069 -0.0551,-0.0069 -0.0896,-0.02067 -0.031,-0.01378 -0.0448,-0.03101 -0.0138,-0.02067 -0.0138,-0.04823 v -2.718182 h -0.43753 q -0.0551,0 -0.0827,-0.05512 -0.0276,-0.05512 -0.0276,-0.179145 0,-0.06546 0.007,-0.110243 0.007,-0.04479 0.0207,-0.07235 0.0138,-0.03101 0.0344,-0.04134 0.0207,-0.01378 0.0482,-0.01378 h 0.43753 v -0.320394 q 0,-0.323839 0.0586,-0.5546609 0.062,-0.2342666 0.18603,-0.3824058 0.12403,-0.1481392 0.31006,-0.2170412 0.18948,-0.072347 0.44442,-0.072347 0.12058,0 0.23427,0.024116 0.11368,0.020671 0.1757,0.048231 0.062,0.024116 0.0827,0.044786 0.0207,0.020671 0.0345,0.055122 0.0138,0.031006 0.0172,0.079237 0.007,0.044786 0.007,0.1102431 z m 3.19017,2.7905287 q 0,0.378961 -0.0999,0.699355 -0.0999,0.316949 -0.29973,0.547771 -0.19637,0.230821 -0.49609,0.361735 -0.29628,0.127469 -0.68902,0.127469 -0.38241,0 -0.66835,-0.113688 -0.2825,-0.113689 -0.47198,-0.33073 -0.18948,-0.217041 -0.2825,-0.5271 -0.093,-0.310059 -0.093,-0.7028 0,-0.37896 0.0965,-0.695909 0.0999,-0.320395 0.29628,-0.551216 0.19981,-0.230822 0.49609,-0.35829 0.29628,-0.127469 0.69247,-0.127469 0.3824,0 0.6649,0.113688 0.28594,0.113689 0.47542,0.33073 0.18948,0.217041 0.2825,0.5271 0.0965,0.310058 0.0965,0.699354 z m -0.59945,0.0379 q 0,-0.251493 -0.0482,-0.475424 -0.0448,-0.223931 -0.15159,-0.392741 -0.1068,-0.16881 -0.28939,-0.265273 -0.18259,-0.09991 -0.45475,-0.09991 -0.25149,0 -0.43408,0.08957 -0.17915,0.08957 -0.29628,0.254937 -0.11713,0.16192 -0.1757,0.385851 -0.0551,0.223932 -0.0551,0.489204 0,0.254937 0.0448,0.478869 0.0482,0.223931 0.15502,0.392741 0.11025,0.165365 0.29284,0.265272 0.18259,0.09646 0.45475,0.09646 0.24805,0 0.43064,-0.08957 0.18259,-0.08957 0.29972,-0.251493 0.11714,-0.161919 0.17226,-0.38585 0.0551,-0.223932 0.0551,-0.492649 z m 3.64836,1.481392 q 0.0276,0.04823 0.0276,0.08268 0,0.03101 -0.0344,0.05168 -0.031,0.02067 -0.0999,0.02756 -0.0655,0.01033 -0.17226,0.01033 -0.10335,0 -0.16536,-0.0069 -0.0586,-0.0034 -0.0965,-0.01378 -0.0345,-0.01378 -0.0551,-0.03101 -0.0172,-0.02067 -0.031,-0.04479 l -0.74414,-1.2299 -0.7407,1.2299 q -0.0138,0.02412 -0.0344,0.04479 -0.0172,0.01722 -0.0551,0.03101 -0.0345,0.01033 -0.093,0.01378 -0.0586,0.0069 -0.15503,0.0069 -0.0999,0 -0.16536,-0.01033 -0.062,-0.0069 -0.093,-0.02756 -0.0276,-0.02067 -0.0276,-0.05168 0.003,-0.03445 0.0345,-0.08268 l 0.96463,-1.512398 -0.91295,-1.457277 q -0.0276,-0.04823 -0.031,-0.07924 0,-0.03445 0.031,-0.05512 0.0345,-0.02412 0.0999,-0.03101 0.0689,-0.0069 0.17915,-0.0069 0.0999,0 0.15847,0.0069 0.062,0.0034 0.0965,0.01378 0.0344,0.01033 0.0517,0.02756 0.0172,0.01722 0.031,0.04134 l 0.70624,1.154108 0.71658,-1.154108 q 0.0138,-0.02067 0.031,-0.0379 0.0172,-0.01723 0.0448,-0.02756 0.031,-0.01378 0.0827,-0.01722 0.0551,-0.0069 0.14814,-0.0069 0.0999,0 0.16192,0.0069 0.0654,0.0069 0.0965,0.02756 0.031,0.01723 0.0276,0.05168 -0.003,0.03445 -0.0345,0.08613 l -0.90606,1.440051 z m -61.49672,9.02271 q 0,0.34451 -0.0517,0.554661 -0.0517,0.213596 -0.16192,0.35829 -0.11024,0.144694 -0.28249,0.217041 -0.17226,0.07579 -0.41686,0.07579 -0.11024,0 -0.18948,-0.01378 -0.0758,-0.01378 -0.11714,-0.03101 -0.0413,-0.01722 -0.0551,-0.04134 -0.0172,-0.02067 -0.0241,-0.05168 -0.007,-0.02756 -0.007,-0.05857 -0.003,-0.03101 -0.003,-0.07579 0,-0.06201 0.007,-0.106798 0.003,-0.04479 0.0172,-0.07235 0.0103,-0.02756 0.0276,-0.04134 0.0138,-0.01034 0.0379,-0.01034 0.0207,0 0.0792,0.0069 0.062,0.01034 0.14125,0.01034 0.11369,0 0.19293,-0.03445 0.0827,-0.03445 0.13436,-0.113688 0.0517,-0.07579 0.0758,-0.199816 0.0241,-0.124024 0.0241,-0.375516 v -3.234946 q 0,-0.02412 0.0138,-0.04479 0.0138,-0.02067 0.0448,-0.03445 0.0344,-0.01378 0.0896,-0.02067 0.0551,-0.0069 0.13781,-0.0069 0.0827,0 0.1378,0.0069 0.0551,0.0069 0.0861,0.02067 0.0345,0.01378 0.0482,0.03445 0.0138,0.02067 0.0138,0.04479 z m 0.0655,-4.285701 q 0,0.199815 -0.0758,0.272163 -0.0758,0.07235 -0.27905,0.07235 -0.19981,0 -0.27216,-0.0689 -0.0724,-0.07235 -0.0724,-0.268718 0,-0.199816 0.0724,-0.272163 0.0758,-0.07235 0.27905,-0.07235 0.20326,0 0.27561,0.07235 0.0724,0.0689 0.0724,0.265273 z m 3.64491,4.147897 q 0,0.02756 -0.0138,0.04823 -0.0103,0.01722 -0.0413,0.03101 -0.031,0.01378 -0.0827,0.02067 -0.0482,0.0069 -0.12058,0.0069 -0.0792,0 -0.13092,-0.0069 -0.0482,-0.0069 -0.0792,-0.02067 -0.0276,-0.01378 -0.0379,-0.03101 -0.0103,-0.02067 -0.0103,-0.04823 v -0.409966 q -0.26528,0.292833 -0.52366,0.427192 -0.25838,0.134359 -0.52365,0.134359 -0.31006,0 -0.52366,-0.103353 -0.21015,-0.103353 -0.34106,-0.279053 -0.13092,-0.179145 -0.18948,-0.413412 -0.0551,-0.237712 -0.0551,-0.575331 v -1.881023 q 0,-0.02756 0.0103,-0.04479 0.0138,-0.02067 0.0482,-0.03445 0.0345,-0.01722 0.0896,-0.02067 0.0551,-0.0069 0.13781,-0.0069 0.0827,0 0.1378,0.0069 0.0551,0.0034 0.0861,0.02067 0.0344,0.01378 0.0482,0.03445 0.0138,0.01723 0.0138,0.04479 v 1.805231 q 0,0.272162 0.0379,0.437527 0.0413,0.16192 0.12057,0.279053 0.0827,0.113688 0.20671,0.179145 0.12402,0.06201 0.28939,0.06201 0.21359,0 0.42375,-0.151584 0.21359,-0.151585 0.4513,-0.444418 v -2.166966 q 0,-0.02756 0.0103,-0.04479 0.0138,-0.02067 0.0482,-0.03445 0.0344,-0.01722 0.0861,-0.02067 0.0551,-0.0069 0.14125,-0.0069 0.0827,0 0.1378,0.0069 0.0551,0.0034 0.0861,0.02067 0.031,0.01378 0.0448,0.03445 0.0172,0.01723 0.0172,0.04479 z m 5.64996,0 q 0,0.02756 -0.0138,0.04823 -0.0138,0.01722 -0.0448,0.03101 -0.031,0.01378 -0.0861,0.02067 -0.0551,0.0069 -0.13781,0.0069 -0.0861,0 -0.14125,-0.0069 -0.0551,-0.0069 -0.0896,-0.02067 -0.031,-0.01378 -0.0448,-0.03101 -0.0138,-0.02067 -0.0138,-0.04823 v -1.884468 q 0,-0.196371 -0.0345,-0.35829 -0.0344,-0.16192 -0.11024,-0.279053 -0.0758,-0.117133 -0.19293,-0.179145 -0.11713,-0.06201 -0.2756,-0.06201 -0.19637,0 -0.39619,0.151584 -0.19637,0.151585 -0.43408,0.444418 v 2.166966 q 0,0.02756 -0.0138,0.04823 -0.0138,0.01722 -0.0482,0.03101 -0.031,0.01378 -0.0861,0.02067 -0.0551,0.0069 -0.13781,0.0069 -0.0792,0 -0.1378,-0.0069 -0.0551,-0.0069 -0.0896,-0.02067 -0.031,-0.01378 -0.0448,-0.03101 -0.0103,-0.02067 -0.0103,-0.04823 v -1.884468 q 0,-0.196371 -0.0379,-0.35829 -0.0379,-0.16192 -0.11369,-0.279053 -0.0758,-0.117133 -0.19292,-0.179145 -0.11369,-0.06201 -0.27217,-0.06201 -0.19637,0 -0.39618,0.151584 -0.19982,0.151585 -0.43408,0.444418 v 2.166966 q 0,0.02756 -0.0138,0.04823 -0.0138,0.01722 -0.0448,0.03101 -0.031,0.01378 -0.0861,0.02067 -0.0551,0.0069 -0.14125,0.0069 -0.0827,0 -0.1378,-0.0069 -0.0551,-0.0069 -0.0896,-0.02067 -0.031,-0.01378 -0.0448,-0.03101 -0.0103,-0.02067 -0.0103,-0.04823 v -3.100587 q 0,-0.02756 0.0103,-0.04479 0.0103,-0.02067 0.0413,-0.03445 0.031,-0.01722 0.0792,-0.02067 0.0482,-0.0069 0.12747,-0.0069 0.0758,0 0.12402,0.0069 0.0517,0.0034 0.0792,0.02067 0.0276,0.01378 0.0379,0.03445 0.0138,0.01723 0.0138,0.04479 v 0.409966 q 0.26183,-0.292833 0.50643,-0.427192 0.24805,-0.137804 0.49954,-0.137804 0.19293,0 0.34451,0.04479 0.15503,0.04479 0.27217,0.127469 0.11713,0.07924 0.19981,0.192925 0.0827,0.110244 0.1378,0.248048 0.15503,-0.16881 0.29284,-0.285944 0.14125,-0.117133 0.26872,-0.18948 0.13091,-0.07235 0.25149,-0.103353 0.12402,-0.03445 0.24804,-0.03445 0.29973,0 0.50299,0.106798 0.20326,0.103353 0.32728,0.279053 0.12747,0.1757 0.17915,0.413412 0.0551,0.234266 0.0551,0.496094 z m 3.88952,-1.598525 q 0,0.406522 -0.0896,0.730361 -0.0861,0.323839 -0.25838,0.551215 -0.16881,0.223932 -0.4203,0.347955 -0.25149,0.120579 -0.57533,0.120579 -0.13781,0 -0.25494,-0.02756 -0.11713,-0.02756 -0.23082,-0.08613 -0.11024,-0.05857 -0.22049,-0.14814 -0.11024,-0.08957 -0.23426,-0.210151 v 1.550294 q 0,0.02756 -0.0138,0.04823 -0.0138,0.02067 -0.0448,0.03445 -0.031,0.01378 -0.0861,0.02067 -0.0551,0.0069 -0.14125,0.0069 -0.0827,0 -0.1378,-0.0069 -0.0551,-0.0069 -0.0896,-0.02067 -0.031,-0.01378 -0.0448,-0.03445 -0.0103,-0.02067 -0.0103,-0.04823 v -4.330487 q 0,-0.03101 0.0103,-0.04823 0.0103,-0.02067 0.0413,-0.03445 0.031,-0.01378 0.0792,-0.01723 0.0482,-0.0069 0.11713,-0.0069 0.0724,0 0.11714,0.0069 0.0482,0.0034 0.0792,0.01723 0.031,0.01378 0.0413,0.03445 0.0138,0.01723 0.0138,0.04823 v 0.416856 q 0.14125,-0.144694 0.27217,-0.251492 0.13091,-0.106798 0.26182,-0.1757 0.13436,-0.07235 0.27217,-0.106798 0.14125,-0.0379 0.29628,-0.0379 0.33761,0 0.57533,0.130914 0.23771,0.130914 0.38585,0.35829 0.15158,0.227376 0.22048,0.530545 0.0689,0.299724 0.0689,0.637343 z m -0.59945,0.06546 q 0,-0.237712 -0.0379,-0.458198 -0.0344,-0.223931 -0.12402,-0.396186 -0.0861,-0.172255 -0.23427,-0.275608 -0.14814,-0.103353 -0.36862,-0.103353 -0.11025,0 -0.21704,0.03445 -0.1068,0.03101 -0.21705,0.103353 -0.11024,0.0689 -0.23082,0.186035 -0.12058,0.113688 -0.25493,0.282498 v 1.233345 q 0.23426,0.285943 0.44441,0.437528 0.21015,0.151584 0.44098,0.151584 0.21359,0 0.36518,-0.103353 0.15503,-0.103353 0.24804,-0.275608 0.0965,-0.172255 0.14125,-0.385851 0.0448,-0.213596 0.0448,-0.430637 z m 3.36586,0.68902 q 0,0.237711 -0.0896,0.423747 -0.0861,0.186035 -0.24805,0.313503 -0.16192,0.127469 -0.38585,0.192926 -0.22393,0.06546 -0.49265,0.06546 -0.16537,0 -0.31695,-0.02756 -0.14814,-0.02412 -0.26872,-0.06201 -0.11713,-0.04134 -0.19981,-0.08268 -0.0827,-0.04479 -0.12058,-0.07924 -0.0379,-0.03445 -0.0551,-0.09646 -0.0172,-0.06201 -0.0172,-0.16881 0,-0.06546 0.007,-0.110243 0.007,-0.04479 0.0172,-0.07235 0.0103,-0.02756 0.0276,-0.0379 0.0207,-0.01378 0.0448,-0.01378 0.0379,0 0.11025,0.04823 0.0758,0.04479 0.18259,0.09991 0.11024,0.05512 0.25838,0.103353 0.14814,0.04479 0.34106,0.04479 0.1447,0 0.26183,-0.03101 0.11714,-0.03101 0.20326,-0.08957 0.0861,-0.06201 0.13092,-0.155029 0.0482,-0.09302 0.0482,-0.220486 0,-0.130914 -0.0689,-0.220486 -0.0655,-0.08957 -0.1757,-0.158475 -0.11025,-0.0689 -0.24805,-0.120578 -0.1378,-0.05512 -0.28594,-0.113689 -0.1447,-0.05857 -0.28595,-0.130913 -0.1378,-0.07579 -0.24804,-0.18259 -0.11025,-0.106799 -0.17915,-0.254938 -0.0655,-0.148139 -0.0655,-0.354845 0,-0.18259 0.0689,-0.347955 0.0723,-0.168809 0.21359,-0.292833 0.14125,-0.127469 0.3514,-0.203261 0.2136,-0.07579 0.4961,-0.07579 0.12402,0 0.24804,0.02067 0.12403,0.02067 0.22393,0.05168 0.0999,0.03101 0.16881,0.0689 0.0724,0.03445 0.1068,0.06201 0.0379,0.02756 0.0482,0.04823 0.0138,0.02067 0.0172,0.04823 0.007,0.02412 0.0103,0.06201 0.007,0.0379 0.007,0.09302 0,0.05857 -0.007,0.103353 -0.003,0.04134 -0.0172,0.0689 -0.0103,0.02756 -0.0276,0.04134 -0.0172,0.01034 -0.0379,0.01034 -0.031,0 -0.0896,-0.0379 -0.0586,-0.0379 -0.15158,-0.07924 -0.093,-0.04479 -0.22049,-0.08268 -0.12402,-0.0379 -0.28594,-0.0379 -0.1447,0 -0.25494,0.03445 -0.11024,0.03101 -0.18259,0.09302 -0.0689,0.05857 -0.1068,0.141249 -0.0344,0.08268 -0.0344,0.179145 0,0.134359 0.0689,0.227377 0.0689,0.08957 0.17915,0.158474 0.11024,0.0689 0.25149,0.124024 0.14125,0.05512 0.28594,0.113688 0.14814,0.05857 0.28939,0.130914 0.14469,0.07235 0.25494,0.1757 0.11024,0.103353 0.1757,0.248047 0.0689,0.144694 0.0689,0.34451 z m 5.29167,-0.740696 q 0,0.37896 -0.0999,0.699354 -0.0999,0.316949 -0.29972,0.547771 -0.19637,0.230821 -0.4961,0.361735 -0.29627,0.127469 -0.68902,0.127469 -0.3824,0 -0.66834,-0.113688 -0.2825,-0.113689 -0.47198,-0.33073 -0.18948,-0.217041 -0.2825,-0.5271 -0.093,-0.310059 -0.093,-0.7028 0,-0.37896 0.0965,-0.695909 0.0999,-0.320395 0.29628,-0.551216 0.19982,-0.230822 0.4961,-0.35829 0.29627,-0.127469 0.69246,-0.127469 0.38241,0 0.66491,0.113688 0.28594,0.113689 0.47542,0.33073 0.18948,0.217041 0.2825,0.5271 0.0965,0.310058 0.0965,0.699355 z m -0.59945,0.0379 q 0,-0.251493 -0.0482,-0.475424 -0.0448,-0.223931 -0.15158,-0.392741 -0.1068,-0.16881 -0.28939,-0.265273 -0.18259,-0.09991 -0.45475,-0.09991 -0.2515,0 -0.43409,0.08957 -0.17914,0.08957 -0.29628,0.254937 -0.11713,0.16192 -0.1757,0.385851 -0.0551,0.223932 -0.0551,0.489204 0,0.254937 0.0448,0.478869 0.0482,0.223931 0.15503,0.392741 0.11024,0.165365 0.29283,0.265272 0.18259,0.09646 0.45476,0.09646 0.24804,0 0.43063,-0.08957 0.18259,-0.08957 0.29973,-0.251492 0.11713,-0.16192 0.17225,-0.385851 0.0551,-0.223932 0.0551,-0.492649 z m 3.94808,-1.56063 q 0,0.01378 -0.003,0.03101 0,0.01378 -0.003,0.03101 -0.003,0.01723 -0.0103,0.0379 -0.003,0.02067 -0.0103,0.04479 l -1.05764,2.945559 q -0.0138,0.0379 -0.0379,0.06201 -0.0207,0.02411 -0.0654,0.0379 -0.0448,0.01378 -0.11369,0.01722 -0.0689,0.0069 -0.17226,0.0069 -0.10335,0 -0.17225,-0.0069 -0.0689,-0.0069 -0.11369,-0.02067 -0.0413,-0.01378 -0.0655,-0.0379 -0.0241,-0.02412 -0.0379,-0.05857 l -1.0542,-2.945559 q -0.0138,-0.04134 -0.0241,-0.07235 -0.007,-0.03101 -0.0103,-0.04479 0,-0.01722 0,-0.02756 0,-0.02756 0.0138,-0.04823 0.0138,-0.02067 0.0448,-0.03101 0.0344,-0.01378 0.0861,-0.01722 0.0551,-0.0034 0.13436,-0.0034 0.0999,0 0.15847,0.0069 0.062,0.0034 0.093,0.01723 0.0344,0.01378 0.0482,0.03445 0.0172,0.02067 0.031,0.05168 l 0.87505,2.556262 0.0138,0.04134 0.0103,-0.04134 0.86472,-2.556262 q 0.007,-0.03101 0.0241,-0.05168 0.0172,-0.02067 0.0482,-0.03445 0.0345,-0.01378 0.0896,-0.01723 0.0586,-0.0069 0.15158,-0.0069 0.0792,0 0.13091,0.0034 0.0517,0.0034 0.0792,0.01722 0.031,0.01378 0.0413,0.03445 0.0138,0.01723 0.0138,0.04479 z m 3.22117,1.422826 q 0,0.134358 -0.0689,0.192925 -0.0655,0.05512 -0.15159,0.05512 h -2.0326 q 0,0.258382 0.0517,0.465088 0.0517,0.206706 0.17226,0.354845 0.12058,0.148139 0.3135,0.227376 0.19293,0.07924 0.47198,0.07924 0.22049,0 0.39274,-0.03445 0.17226,-0.0379 0.29628,-0.08268 0.12747,-0.04479 0.2067,-0.07924 0.0827,-0.0379 0.12403,-0.0379 0.0241,0 0.0413,0.01378 0.0207,0.01034 0.031,0.03445 0.0103,0.02412 0.0138,0.0689 0.007,0.04134 0.007,0.103353 0,0.04479 -0.003,0.07924 -0.003,0.03101 -0.0103,0.05857 -0.003,0.02412 -0.0172,0.04479 -0.0103,0.02067 -0.031,0.04134 -0.0172,0.01722 -0.11024,0.06201 -0.093,0.04134 -0.24116,0.08268 -0.14813,0.04134 -0.34451,0.07235 -0.19292,0.03445 -0.41341,0.03445 -0.3824,0 -0.67179,-0.106798 -0.28594,-0.106798 -0.48231,-0.316949 -0.19638,-0.210151 -0.29628,-0.5271 -0.0999,-0.316949 -0.0999,-0.737251 0,-0.399631 0.10335,-0.71658 0.10335,-0.320395 0.29628,-0.540881 0.19637,-0.223931 0.47198,-0.341064 0.27561,-0.120579 0.61667,-0.120579 0.36518,0 0.62012,0.117133 0.25838,0.117134 0.42375,0.316949 0.16536,0.196371 0.24115,0.465089 0.0792,0.265272 0.0792,0.568441 z m -0.57189,-0.16881 q 0.0103,-0.447863 -0.19981,-0.7028 -0.20671,-0.254937 -0.61667,-0.254937 -0.21016,0 -0.36863,0.07924 -0.15847,0.07924 -0.26527,0.210151 -0.1068,0.130914 -0.16537,0.306614 -0.0586,0.172255 -0.0654,0.361735 z m 3.24873,-1.043865 q 0,0.07579 -0.003,0.127469 -0.003,0.05168 -0.0138,0.08268 -0.0103,0.02756 -0.0276,0.04479 -0.0138,0.01378 -0.0413,0.01378 -0.0276,0 -0.0689,-0.01378 -0.0379,-0.01723 -0.0896,-0.03101 -0.0482,-0.01723 -0.11024,-0.03101 -0.062,-0.01378 -0.13436,-0.01378 -0.0861,0 -0.16881,0.03445 -0.0827,0.03445 -0.1757,0.113689 -0.0896,0.07924 -0.18948,0.210151 -0.0999,0.130913 -0.22049,0.320394 v 2.039497 q 0,0.02756 -0.0138,0.04823 -0.0138,0.01722 -0.0448,0.03101 -0.031,0.01378 -0.0861,0.02067 -0.0551,0.0069 -0.14125,0.0069 -0.0827,0 -0.13781,-0.0069 -0.0551,-0.0069 -0.0896,-0.02067 -0.031,-0.01378 -0.0448,-0.03101 -0.0103,-0.02067 -0.0103,-0.04823 v -3.100587 q 0,-0.02756 0.0103,-0.04479 0.0103,-0.02067 0.0413,-0.03445 0.031,-0.01722 0.0792,-0.02067 0.0482,-0.0069 0.12747,-0.0069 0.0758,0 0.12403,0.0069 0.0517,0.0034 0.0792,0.02067 0.0276,0.01378 0.0379,0.03445 0.0138,0.01723 0.0138,0.04479 v 0.451307 q 0.12747,-0.186035 0.23771,-0.303168 0.11369,-0.117134 0.2136,-0.18259 0.0999,-0.0689 0.19637,-0.09302 0.0999,-0.02756 0.19981,-0.02756 0.0448,0 0.0999,0.0069 0.0586,0.0034 0.12058,0.01723 0.062,0.01378 0.11024,0.03101 0.0517,0.01723 0.0724,0.03445 0.0207,0.01722 0.0276,0.03445 0.007,0.01378 0.0103,0.0379 0.007,0.02412 0.007,0.07235 0.003,0.04479 0.003,0.124023 z m 3.85507,2.669951 q 0,0.09991 -0.0138,0.158475 -0.0138,0.05857 -0.0414,0.08613 -0.0276,0.02756 -0.0827,0.05168 -0.0551,0.02412 -0.12747,0.0379 -0.0689,0.01723 -0.14814,0.02756 -0.0792,0.01034 -0.15847,0.01034 -0.24116,0 -0.41341,-0.06201 -0.17226,-0.06546 -0.2825,-0.192926 -0.11024,-0.130913 -0.16192,-0.327284 -0.0482,-0.199816 -0.0482,-0.468533 v -1.812122 h -0.43408 q -0.0517,0 -0.0827,-0.05512 -0.031,-0.05512 -0.031,-0.179145 0,-0.06546 0.007,-0.110243 0.0103,-0.04479 0.0241,-0.07235 0.0138,-0.03101 0.0345,-0.04134 0.0241,-0.01378 0.0517,-0.01378 h 0.43064 V 18.73135 q 0,-0.02412 0.0103,-0.04479 0.0138,-0.02067 0.0448,-0.03445 0.0344,-0.01723 0.0896,-0.02412 0.0551,-0.0069 0.13781,-0.0069 0.0861,0 0.14125,0.0069 0.0551,0.0069 0.0861,0.02412 0.031,0.01378 0.0448,0.03445 0.0138,0.02067 0.0138,0.04479 v 0.737251 h 0.79582 q 0.0276,0 0.0482,0.01378 0.0207,0.01034 0.0344,0.04134 0.0172,0.02756 0.0241,0.07235 0.007,0.04479 0.007,0.110243 0,0.124023 -0.031,0.179145 -0.031,0.05512 -0.0827,0.05512 h -0.79582 v 1.729439 q 0,0.320395 0.093,0.485759 0.0965,0.16192 0.34106,0.16192 0.0792,0 0.14125,-0.01378 0.062,-0.01722 0.11024,-0.03445 0.0482,-0.01722 0.0827,-0.03101 0.0344,-0.01723 0.062,-0.01723 0.0172,0 0.031,0.01034 0.0172,0.0069 0.0241,0.03101 0.0103,0.02412 0.0172,0.06546 0.007,0.04134 0.007,0.103353 z m 3.42098,0.227376 q 0,0.02756 -0.0138,0.04823 -0.0138,0.01722 -0.0448,0.03101 -0.031,0.01378 -0.0861,0.02067 -0.0551,0.0069 -0.1378,0.0069 -0.0861,0 -0.14125,-0.0069 -0.0551,-0.0069 -0.0861,-0.02067 -0.031,-0.01378 -0.0448,-0.03101 -0.0138,-0.02067 -0.0138,-0.04823 v -1.815566 q 0,-0.265273 -0.0413,-0.427192 -0.0413,-0.16192 -0.12058,-0.279053 -0.0792,-0.117133 -0.2067,-0.179145 -0.12402,-0.06201 -0.28939,-0.06201 -0.2136,0 -0.42719,0.151584 -0.2136,0.151585 -0.44786,0.444418 v 2.166966 q 0,0.02756 -0.0138,0.04823 -0.0138,0.01722 -0.0448,0.03101 -0.031,0.01378 -0.0861,0.02067 -0.0551,0.0069 -0.14125,0.0069 -0.0827,0 -0.1378,-0.0069 -0.0551,-0.0069 -0.0896,-0.02067 -0.031,-0.01378 -0.0448,-0.03101 -0.0103,-0.02067 -0.0103,-0.04823 v -4.60265 q 0,-0.02756 0.0103,-0.04823 0.0138,-0.02067 0.0448,-0.03445 0.0344,-0.01378 0.0896,-0.02067 0.0551,-0.0069 0.1378,-0.0069 0.0861,0 0.14125,0.0069 0.0551,0.0069 0.0861,0.02067 0.031,0.01378 0.0448,0.03445 0.0138,0.02067 0.0138,0.04823 v 1.856908 q 0.2446,-0.258383 0.49264,-0.382406 0.24805,-0.127469 0.49954,-0.127469 0.31006,0 0.52021,0.106798 0.2136,0.103353 0.34451,0.279053 0.13092,0.1757 0.18604,0.413412 0.0586,0.234266 0.0586,0.568441 z m 3.68281,-1.684652 q 0,0.134358 -0.0689,0.192925 -0.0655,0.05512 -0.15159,0.05512 h -2.03261 q 0,0.258382 0.0517,0.465088 0.0517,0.206706 0.17226,0.354845 0.12057,0.148139 0.3135,0.227376 0.19292,0.07924 0.47198,0.07924 0.22048,0 0.39274,-0.03445 0.17225,-0.0379 0.29628,-0.08268 0.12747,-0.04479 0.2067,-0.07924 0.0827,-0.0379 0.12403,-0.0379 0.0241,0 0.0413,0.01378 0.0207,0.01034 0.031,0.03445 0.0103,0.02412 0.0138,0.0689 0.007,0.04134 0.007,0.103353 0,0.04479 -0.003,0.07924 -0.003,0.03101 -0.0103,0.05857 -0.003,0.02412 -0.0172,0.04479 -0.0103,0.02067 -0.031,0.04134 -0.0172,0.01722 -0.11024,0.06201 -0.093,0.04134 -0.24116,0.08268 -0.14814,0.04134 -0.34451,0.07235 -0.19292,0.03445 -0.41341,0.03445 -0.3824,0 -0.67179,-0.106798 -0.28595,-0.106798 -0.48232,-0.316949 -0.19637,-0.210151 -0.29627,-0.5271 -0.0999,-0.316949 -0.0999,-0.737251 0,-0.399631 0.10335,-0.71658 0.10335,-0.320395 0.29628,-0.540881 0.19637,-0.223931 0.47198,-0.341064 0.2756,-0.120579 0.61667,-0.120579 0.36518,0 0.62012,0.117133 0.25838,0.117134 0.42374,0.316949 0.16537,0.196371 0.24116,0.465089 0.0792,0.265272 0.0792,0.568441 z m -0.57189,-0.16881 q 0.0103,-0.447863 -0.19981,-0.7028 -0.20671,-0.254937 -0.61668,-0.254937 -0.21015,0 -0.36862,0.07924 -0.15848,0.07924 -0.26527,0.210151 -0.1068,0.130914 -0.16537,0.306614 -0.0586,0.172255 -0.0655,0.361735 z m 3.60013,1.853462 q 0,0.02756 -0.0138,0.04823 -0.0138,0.01722 -0.0448,0.03101 -0.031,0.01378 -0.0861,0.02067 -0.0551,0.0069 -0.14125,0.0069 -0.0827,0 -0.1378,-0.0069 -0.0551,-0.0069 -0.0896,-0.02067 -0.031,-0.01378 -0.0448,-0.03101 -0.0103,-0.02067 -0.0103,-0.04823 v -4.60265 q 0,-0.02756 0.0103,-0.04823 0.0138,-0.02067 0.0448,-0.03445 0.0344,-0.01378 0.0896,-0.02067 0.0551,-0.0069 0.1378,-0.0069 0.0861,0 0.14125,0.0069 0.0551,0.0069 0.0861,0.02067 0.031,0.01378 0.0448,0.03445 0.0138,0.02067 0.0138,0.04823 z m 3.38653,0.0034 q 0,0.04134 -0.0276,0.06201 -0.0276,0.02067 -0.0758,0.03101 -0.0482,0.01034 -0.14125,0.01034 -0.0896,0 -0.1447,-0.01034 -0.0517,-0.01033 -0.0758,-0.03101 -0.0241,-0.02067 -0.0241,-0.06201 v -0.310059 q -0.20326,0.217041 -0.45476,0.337619 -0.24804,0.120579 -0.5271,0.120579 -0.2446,0 -0.44441,-0.06546 -0.19637,-0.06201 -0.33762,-0.18259 -0.13781,-0.120579 -0.21705,-0.296279 -0.0758,-0.1757 -0.0758,-0.399631 0,-0.261827 0.1068,-0.454753 0.1068,-0.192925 0.30661,-0.320394 0.19982,-0.127469 0.48921,-0.18948 0.28939,-0.06546 0.65112,-0.06546 h 0.42719 v -0.241157 q 0,-0.179145 -0.0379,-0.316949 -0.0379,-0.137804 -0.12403,-0.227377 -0.0827,-0.09302 -0.21704,-0.137803 -0.13436,-0.04823 -0.33073,-0.04823 -0.21015,0 -0.37896,0.05168 -0.16536,0.04823 -0.29283,0.110243 -0.12402,0.05857 -0.21015,0.110243 -0.0827,0.04823 -0.12402,0.04823 -0.0276,0 -0.0482,-0.01378 -0.0207,-0.01378 -0.0379,-0.04134 -0.0138,-0.02756 -0.0207,-0.0689 -0.007,-0.04479 -0.007,-0.09646 0,-0.08613 0.0103,-0.134359 0.0138,-0.05168 0.0586,-0.09646 0.0482,-0.04479 0.16192,-0.103353 0.11369,-0.06201 0.26183,-0.110244 0.14814,-0.05168 0.32384,-0.08268 0.1757,-0.03445 0.35484,-0.03445 0.33417,0 0.56844,0.07579 0.23427,0.07579 0.37896,0.223932 0.1447,0.144694 0.21015,0.361735 0.0655,0.217041 0.0655,0.506429 z m -0.565,-1.415936 h -0.48575 q -0.23427,0 -0.40653,0.04134 -0.17225,0.0379 -0.28594,0.117133 -0.11369,0.07579 -0.16881,0.186035 -0.0517,0.106798 -0.0517,0.248047 0,0.241157 0.15159,0.385851 0.15503,0.141249 0.43064,0.141249 0.22393,0 0.41341,-0.113688 0.19292,-0.113688 0.40307,-0.347955 z m 3.58635,1.257461 q 0,0.06546 -0.0103,0.113688 -0.0103,0.04479 -0.0241,0.07579 -0.0138,0.02756 -0.0379,0.04134 -0.0241,0.01034 -0.0517,0.01034 h -1.90858 q -0.0724,0 -0.12058,-0.04823 -0.0448,-0.04823 -0.0448,-0.16192 v -0.117133 q 0,-0.04823 0.007,-0.08613 0.007,-0.0379 0.0207,-0.07579 0.0138,-0.0379 0.0379,-0.07924 0.0241,-0.04479 0.0586,-0.09991 l 1.3677,-2.12907 h -1.32636 q -0.0551,0 -0.0896,-0.05512 -0.031,-0.05857 -0.031,-0.186035 0,-0.06201 0.007,-0.106798 0.007,-0.04823 0.0207,-0.07579 0.0172,-0.03101 0.0379,-0.04134 0.0241,-0.01378 0.0551,-0.01378 h 1.77767 q 0.0379,0 0.0655,0.01034 0.031,0.01034 0.0517,0.03445 0.0207,0.02412 0.031,0.06201 0.0138,0.0379 0.0138,0.09646 v 0.110243 q 0,0.04823 -0.007,0.08957 -0.007,0.04134 -0.0207,0.08268 -0.0138,0.0379 -0.0379,0.08268 -0.0241,0.04479 -0.0586,0.09991 l -1.36082,2.12907 h 1.45383 q 0.0276,0 0.0482,0.01378 0.0241,0.01034 0.0379,0.0379 0.0172,0.02756 0.0276,0.07579 0.0103,0.04479 0.0103,0.110243 z m 2.16008,0.241157 -0.41341,1.140327 q -0.0207,0.05512 -0.1068,0.08268 -0.0827,0.03101 -0.25494,0.03101 -0.0896,0 -0.14469,-0.01034 -0.0551,-0.0069 -0.0861,-0.02756 -0.0276,-0.02067 -0.031,-0.05512 -0.003,-0.03445 0.0172,-0.08268 l 0.42719,-1.078315 q -0.031,-0.01378 -0.0586,-0.04479 -0.0276,-0.03101 -0.0379,-0.06546 l -1.10588,-2.962784 q -0.0276,-0.07235 -0.0276,-0.113688 0,-0.04134 0.0276,-0.06546 0.0276,-0.02412 0.0896,-0.03101 0.062,-0.01034 0.16537,-0.01034 0.10335,0 0.16192,0.0069 0.0586,0.0034 0.093,0.01723 0.0345,0.01378 0.0482,0.04134 0.0172,0.02412 0.0344,0.0689 l 0.88539,2.487361 h 0.0103 l 0.85439,-2.501141 q 0.0207,-0.06546 0.0482,-0.08268 0.031,-0.02067 0.0896,-0.02756 0.0586,-0.01034 0.16881,-0.01034 0.0965,0 0.15848,0.01034 0.062,0.0069 0.0896,0.03101 0.031,0.02412 0.031,0.06546 0,0.04134 -0.0207,0.103352 z m 6.03236,-0.08613 q 0,0.02756 -0.0138,0.04823 -0.0103,0.02067 -0.0413,0.03445 -0.0276,0.01033 -0.0758,0.01722 -0.0482,0.0069 -0.11713,0.0069 -0.0724,0 -0.12058,-0.0069 -0.0482,-0.0069 -0.0792,-0.01722 -0.031,-0.01378 -0.0448,-0.03445 -0.0138,-0.02067 -0.0138,-0.04823 v -0.409966 q -0.2446,0.265272 -0.50987,0.413412 -0.26183,0.148139 -0.57533,0.148139 -0.34107,0 -0.58222,-0.130914 -0.24116,-0.134359 -0.39275,-0.35829 -0.14813,-0.227377 -0.21704,-0.530545 -0.0689,-0.306614 -0.0689,-0.644233 0,-0.399632 0.0861,-0.720026 0.0861,-0.323839 0.25494,-0.551215 0.16881,-0.227377 0.41685,-0.347955 0.2515,-0.124024 0.57878,-0.124024 0.27216,0 0.49609,0.120579 0.22738,0.117133 0.44787,0.347954 v -1.801786 q 0,-0.02411 0.0103,-0.04479 0.0138,-0.02412 0.0482,-0.03445 0.0344,-0.01378 0.0861,-0.02067 0.0551,-0.01033 0.1378,-0.01033 0.0861,0 0.14125,0.01033 0.0551,0.0069 0.0861,0.02067 0.031,0.01034 0.0448,0.03445 0.0172,0.02067 0.0172,0.04479 z m -0.57188,-2.180746 q -0.23083,-0.285944 -0.44787,-0.434083 -0.21359,-0.151584 -0.44786,-0.151584 -0.21704,0 -0.36862,0.103353 -0.15159,0.103353 -0.24805,0.272163 -0.093,0.168809 -0.13781,0.382405 -0.0413,0.213597 -0.0413,0.434083 0,0.234266 0.0344,0.458198 0.0379,0.223931 0.12747,0.399631 0.0896,0.172255 0.23771,0.279053 0.14814,0.103353 0.37208,0.103353 0.11368,0 0.21704,-0.03101 0.10679,-0.03101 0.21704,-0.103353 0.11024,-0.07235 0.23082,-0.186035 0.12058,-0.117133 0.25494,-0.285943 z m 4.50618,0.596002 q 0,0.37896 -0.0999,0.699354 -0.0999,0.316949 -0.29973,0.547771 -0.19637,0.230821 -0.49609,0.361735 -0.29628,0.127469 -0.68902,0.127469 -0.38241,0 -0.66835,-0.113688 -0.2825,-0.113689 -0.47198,-0.33073 -0.18948,-0.217041 -0.2825,-0.5271 -0.093,-0.310059 -0.093,-0.7028 0,-0.37896 0.0965,-0.695909 0.0999,-0.320395 0.29628,-0.551216 0.19981,-0.230822 0.49609,-0.35829 0.29628,-0.127469 0.69247,-0.127469 0.3824,0 0.6649,0.113688 0.28594,0.113689 0.47542,0.33073 0.18948,0.217041 0.2825,0.5271 0.0965,0.310058 0.0965,0.699355 z m -0.59944,0.0379 q 0,-0.251493 -0.0482,-0.475424 -0.0448,-0.223931 -0.15158,-0.392741 -0.1068,-0.16881 -0.28939,-0.265273 -0.18259,-0.09991 -0.45475,-0.09991 -0.25149,0 -0.43408,0.08957 -0.17915,0.08957 -0.29628,0.254937 -0.11713,0.16192 -0.1757,0.385851 -0.0551,0.223932 -0.0551,0.489204 0,0.254937 0.0448,0.478869 0.0482,0.223931 0.15503,0.392741 0.11025,0.165365 0.29284,0.265272 0.18259,0.09646 0.45475,0.09646 0.24805,0 0.43064,-0.08957 0.18259,-0.08957 0.29972,-0.251492 0.11713,-0.16192 0.17225,-0.385851 0.0551,-0.223932 0.0551,-0.492649 z m 4.02731,-1.41249 q 0,0.120578 -0.0344,0.1757 -0.031,0.05168 -0.0827,0.05168 h -0.44442 q 0.12058,0.124023 0.16881,0.275608 0.0482,0.148139 0.0482,0.310059 0,0.268717 -0.0861,0.475423 -0.0861,0.206706 -0.24805,0.3514 -0.15848,0.141249 -0.37896,0.217041 -0.22049,0.07579 -0.48921,0.07579 -0.18948,0 -0.36173,-0.04823 -0.16881,-0.05168 -0.26183,-0.127469 -0.062,0.06201 -0.10335,0.141249 -0.0379,0.07924 -0.0379,0.182591 0,0.120578 0.11025,0.199815 0.11368,0.07924 0.29972,0.08613 l 0.8096,0.03445 q 0.23082,0.0069 0.42374,0.06546 0.19293,0.05512 0.33418,0.16192 0.14125,0.103353 0.22048,0.258382 0.0792,0.151585 0.0792,0.354845 0,0.213597 -0.0896,0.406522 -0.0896,0.192925 -0.27561,0.33762 -0.18259,0.148139 -0.46853,0.230821 -0.28594,0.08613 -0.67524,0.08613 -0.37552,0 -0.64079,-0.06546 -0.26183,-0.06201 -0.43064,-0.172255 -0.16881,-0.110243 -0.2446,-0.265273 -0.0758,-0.151584 -0.0758,-0.330729 0,-0.113688 0.0276,-0.220486 0.0276,-0.106798 0.0827,-0.203261 0.0586,-0.09646 0.14125,-0.18259 0.0861,-0.08957 0.19637,-0.1757 -0.16881,-0.08613 -0.25149,-0.217041 -0.0792,-0.130914 -0.0792,-0.282498 0,-0.210151 0.0861,-0.375516 0.0861,-0.165365 0.2136,-0.296278 -0.1068,-0.127469 -0.16881,-0.285944 -0.062,-0.161919 -0.062,-0.389296 0,-0.265272 0.0896,-0.475423 0.0896,-0.210151 0.24804,-0.354845 0.15848,-0.144694 0.37897,-0.220486 0.22393,-0.07924 0.48575,-0.07924 0.14125,0 0.26183,0.01723 0.12403,0.01378 0.23082,0.04134 h 0.93707 q 0.0586,0 0.0861,0.05857 0.031,0.05512 0.031,0.172255 z m -0.88883,0.816488 q 0,-0.316949 -0.1757,-0.492649 -0.17226,-0.179145 -0.49265,-0.179145 -0.16537,0 -0.28939,0.05512 -0.12058,0.05512 -0.20326,0.151584 -0.0792,0.09646 -0.12058,0.223932 -0.0379,0.124023 -0.0379,0.261827 0,0.306614 0.17225,0.482314 0.1757,0.1757 0.4892,0.1757 0.16881,0 0.29284,-0.05168 0.12402,-0.05512 0.20326,-0.148139 0.0827,-0.09646 0.12058,-0.220486 0.0413,-0.124024 0.0413,-0.258382 z m 0.28594,2.456354 q 0,-0.199815 -0.16536,-0.306613 -0.16192,-0.110243 -0.44098,-0.117134 l -0.8027,-0.02756 q -0.11025,0.08613 -0.18259,0.165364 -0.0689,0.07579 -0.11025,0.144694 -0.0413,0.07235 -0.0586,0.141249 -0.0138,0.0689 -0.0138,0.141249 0,0.223932 0.22737,0.33762 0.22738,0.117133 0.6339,0.117133 0.25838,0 0.43064,-0.05168 0.1757,-0.04823 0.2825,-0.130914 0.10679,-0.08268 0.15158,-0.18948 0.0482,-0.106798 0.0482,-0.223932 z"
       id="text3"
       transform="translate(-98.870614,42.240497)"
       aria-label="The quick brown fox jumps over the lazy dog" />
    <path
       style="font-size:7.05556px;font-family:Calibri;-inkscape-font-specification:Calibri;text-align:center;text-anchor:middle;white-space:pre;inline-size:68.7591;fill:#2779fe;stroke-width:0.2;stroke-opacity:0.978182"
       d="m 122.28955,9.7224197 q 0,0.065457 -0.007,0.1136882 -0.007,0.048231 -0.0241,0.079237 -0.0138,0.027561 -0.0379,0.041341 -0.0207,0.01378 -0.0482,0.01378 h -1.25401 v 3.8653993 q 0,0.02756 -0.0138,0.04823 -0.0138,0.02067 -0.0482,0.03445 -0.0345,0.01033 -0.093,0.01722 -0.0551,0.01033 -0.14125,0.01033 -0.0827,0 -0.14125,-0.01033 -0.0586,-0.0069 -0.093,-0.01722 -0.0345,-0.01378 -0.0482,-0.03445 -0.0138,-0.02067 -0.0138,-0.04823 V 9.9704667 h -1.25401 q -0.0276,0 -0.0517,-0.01378 -0.0207,-0.01378 -0.0345,-0.041341 -0.0138,-0.031006 -0.0241,-0.079237 -0.007,-0.048231 -0.007,-0.1136882 0,-0.065457 0.007,-0.1136883 0.0103,-0.051676 0.0241,-0.082682 0.0138,-0.031006 0.0345,-0.044786 0.0241,-0.01378 0.0517,-0.01378 h 3.10058 q 0.0276,0 0.0482,0.01378 0.0241,0.01378 0.0379,0.044786 0.0172,0.031006 0.0241,0.082682 0.007,0.048231 0.007,0.1136883 z m 3.24873,4.1168913 q 0,0.02756 -0.0138,0.04823 -0.0138,0.01722 -0.0448,0.03101 -0.031,0.01378 -0.0861,0.02067 -0.0551,0.0069 -0.1378,0.0069 -0.0861,0 -0.14125,-0.0069 -0.0551,-0.0069 -0.0861,-0.02067 -0.031,-0.01378 -0.0448,-0.03101 -0.0138,-0.02067 -0.0138,-0.04823 v -1.815566 q 0,-0.265273 -0.0413,-0.427192 -0.0413,-0.16192 -0.12058,-0.279053 -0.0792,-0.117133 -0.2067,-0.179145 -0.12402,-0.06201 -0.28939,-0.06201 -0.2136,0 -0.42719,0.151584 -0.2136,0.151585 -0.44786,0.444418 v 2.166966 q 0,0.02756 -0.0138,0.04823 -0.0138,0.01722 -0.0448,0.03101 -0.031,0.01378 -0.0861,0.02067 -0.0551,0.0069 -0.14125,0.0069 -0.0827,0 -0.1378,-0.0069 -0.0551,-0.0069 -0.0896,-0.02067 -0.031,-0.01378 -0.0448,-0.03101 -0.0103,-0.02067 -0.0103,-0.04823 V 9.2366609 q 0,-0.027561 0.0103,-0.048231 0.0138,-0.020671 0.0448,-0.034451 0.0344,-0.01378 0.0896,-0.020671 0.0551,-0.00689 0.1378,-0.00689 0.0861,0 0.14125,0.00689 0.0551,0.00689 0.0861,0.020671 0.031,0.01378 0.0448,0.034451 0.0138,0.020671 0.0138,0.048231 v 1.8569081 q 0.2446,-0.258383 0.49264,-0.382406 0.24805,-0.127469 0.49954,-0.127469 0.31006,0 0.52021,0.106798 0.2136,0.103353 0.34451,0.279053 0.13092,0.1757 0.18604,0.413412 0.0586,0.234266 0.0586,0.568441 z m 3.6828,-1.684652 q 0,0.134358 -0.0689,0.192925 -0.0654,0.05512 -0.15158,0.05512 h -2.03261 q 0,0.258382 0.0517,0.465088 0.0517,0.206706 0.17225,0.354845 0.12058,0.148139 0.31351,0.227376 0.19292,0.07924 0.47197,0.07924 0.22049,0 0.39275,-0.03445 0.17225,-0.0379 0.29627,-0.08268 0.12747,-0.04479 0.20671,-0.07924 0.0827,-0.0379 0.12402,-0.0379 0.0241,0 0.0413,0.01378 0.0207,0.01034 0.031,0.03445 0.0103,0.02412 0.0138,0.0689 0.007,0.04134 0.007,0.103353 0,0.04479 -0.003,0.07924 -0.003,0.03101 -0.0103,0.05857 -0.003,0.02412 -0.0172,0.04479 -0.0103,0.02067 -0.031,0.04134 -0.0172,0.01722 -0.11024,0.06201 -0.093,0.04134 -0.24116,0.08268 -0.14814,0.04134 -0.34451,0.07235 -0.19293,0.03445 -0.41341,0.03445 -0.38241,0 -0.6718,-0.106798 -0.28594,-0.106798 -0.48231,-0.316949 -0.19637,-0.210151 -0.29628,-0.5271 -0.0999,-0.316949 -0.0999,-0.737251 0,-0.399631 0.10336,-0.71658 0.10335,-0.320395 0.29628,-0.540881 0.19637,-0.223931 0.47197,-0.341064 0.27561,-0.120579 0.61668,-0.120579 0.36518,0 0.62011,0.117133 0.25839,0.117134 0.42375,0.316949 0.16537,0.196371 0.24116,0.465089 0.0792,0.265272 0.0792,0.568441 z m -0.57188,-0.16881 q 0.0103,-0.447863 -0.19982,-0.7028 -0.2067,-0.254937 -0.61667,-0.254937 -0.21015,0 -0.36863,0.07924 -0.15847,0.07924 -0.26527,0.210151 -0.1068,0.130914 -0.16536,0.306614 -0.0586,0.172254 -0.0655,0.361735 z m 5.68785,3.083362 q 0,0.02756 -0.0172,0.04823 -0.0138,0.02067 -0.0448,0.03445 -0.031,0.01378 -0.0861,0.02067 -0.0551,0.0069 -0.13781,0.0069 -0.0861,0 -0.14125,-0.0069 -0.0517,-0.0069 -0.0861,-0.02067 -0.0345,-0.01378 -0.0482,-0.03445 -0.0103,-0.02067 -0.0103,-0.04823 v -1.58819 q -0.14125,0.141249 -0.26872,0.241157 -0.12747,0.09646 -0.25149,0.158475 -0.12402,0.05857 -0.25149,0.08268 -0.12403,0.02756 -0.25839,0.02756 -0.33762,0 -0.57533,-0.130914 -0.23771,-0.134359 -0.38929,-0.35829 -0.14814,-0.227377 -0.21704,-0.530545 -0.0689,-0.306614 -0.0689,-0.644233 0,-0.399632 0.0861,-0.720026 0.0861,-0.323839 0.25494,-0.551216 0.17225,-0.227376 0.4203,-0.347954 0.25149,-0.124024 0.57878,-0.124024 0.1378,0 0.25838,0.03101 0.12058,0.02756 0.23771,0.09302 0.12058,0.06201 0.24116,0.165364 0.12402,0.09991 0.26872,0.241157 v -0.375516 q 0,-0.03101 0.0138,-0.04823 0.0138,-0.02067 0.0448,-0.03445 0.031,-0.01378 0.0792,-0.01722 0.0482,-0.0069 0.12058,-0.0069 0.0689,0 0.11713,0.0069 0.0482,0.0034 0.0758,0.01722 0.031,0.01378 0.0413,0.03445 0.0138,0.01723 0.0138,0.04823 z m -0.57188,-3.410646 q -0.23082,-0.285944 -0.44786,-0.434083 -0.2136,-0.151584 -0.44787,-0.151584 -0.21704,0 -0.36862,0.103353 -0.15159,0.103353 -0.24805,0.272163 -0.093,0.168809 -0.1378,0.382405 -0.0413,0.213597 -0.0413,0.434083 0,0.237712 0.0344,0.461643 0.0379,0.223931 0.12747,0.396186 0.0896,0.172255 0.23771,0.279053 0.14814,0.103353 0.37207,0.103353 0.11369,0 0.21704,-0.03101 0.1068,-0.03101 0.21704,-0.103353 0.11024,-0.07235 0.23082,-0.186035 0.12058,-0.117133 0.25494,-0.285943 z m 4.27881,2.180746 q 0,0.02756 -0.0138,0.04823 -0.0103,0.01722 -0.0413,0.03101 -0.031,0.01378 -0.0827,0.02067 -0.0482,0.0069 -0.12058,0.0069 -0.0792,0 -0.13092,-0.0069 -0.0482,-0.0069 -0.0792,-0.02067 -0.0276,-0.01378 -0.0379,-0.03101 -0.0103,-0.02067 -0.0103,-0.04823 v -0.409966 q -0.26528,0.292833 -0.52366,0.427192 -0.25838,0.134359 -0.52365,0.134359 -0.31006,0 -0.52366,-0.103353 -0.21015,-0.103353 -0.34106,-0.279053 -0.13092,-0.179145 -0.18948,-0.413412 -0.0551,-0.237712 -0.0551,-0.575331 v -1.881024 q 0,-0.02756 0.0103,-0.04479 0.0138,-0.02067 0.0482,-0.03445 0.0345,-0.01722 0.0896,-0.02067 0.0551,-0.0069 0.13781,-0.0069 0.0827,0 0.1378,0.0069 0.0551,0.0034 0.0861,0.02067 0.0344,0.01378 0.0482,0.03445 0.0138,0.01723 0.0138,0.04479 v 1.805232 q 0,0.272162 0.0379,0.437527 0.0413,0.16192 0.12058,0.279053 0.0827,0.113688 0.2067,0.179145 0.12402,0.06201 0.28939,0.06201 0.2136,0 0.42375,-0.151584 0.21359,-0.151585 0.4513,-0.444418 v -2.166967 q 0,-0.02756 0.0103,-0.04479 0.0138,-0.02067 0.0482,-0.03445 0.0344,-0.01722 0.0861,-0.02067 0.0551,-0.0069 0.14125,-0.0069 0.0827,0 0.1378,0.0069 0.0551,0.0034 0.0861,0.02067 0.031,0.01378 0.0448,0.03445 0.0172,0.01723 0.0172,0.04479 z m 1.6192,0 q 0,0.02756 -0.0138,0.04823 -0.0138,0.01722 -0.0448,0.03101 -0.031,0.01378 -0.0861,0.02067 -0.0551,0.0069 -0.14125,0.0069 -0.0827,0 -0.1378,-0.0069 -0.0551,-0.0069 -0.0896,-0.02067 -0.031,-0.01378 -0.0448,-0.03101 -0.0103,-0.02067 -0.0103,-0.04823 v -3.100588 q 0,-0.02412 0.0103,-0.04479 0.0138,-0.02067 0.0448,-0.03445 0.0345,-0.01378 0.0896,-0.02067 0.0551,-0.0069 0.1378,-0.0069 0.0861,0 0.14125,0.0069 0.0551,0.0069 0.0861,0.02067 0.031,0.01378 0.0448,0.03445 0.0138,0.02067 0.0138,0.04479 z m 0.0654,-4.1478972 q 0,0.1998157 -0.0758,0.2721627 -0.0758,0.072347 -0.27905,0.072347 -0.19982,0 -0.27561,-0.068902 -0.0724,-0.072347 -0.0724,-0.2687176 0,-0.1998157 0.0758,-0.2721627 0.0758,-0.072347 0.27906,-0.072347 0.19981,0 0.27216,0.072347 0.0758,0.068902 0.0758,0.2652725 z m 3.21428,3.6759192 q 0,0.05857 -0.003,0.103353 -0.003,0.04134 -0.0138,0.07235 -0.007,0.02756 -0.0207,0.05168 -0.0103,0.02067 -0.0551,0.06546 -0.0413,0.04134 -0.14469,0.106798 -0.10336,0.06201 -0.23427,0.113689 -0.12747,0.04823 -0.27905,0.07924 -0.15159,0.03101 -0.31351,0.03101 -0.33417,0 -0.59255,-0.110243 -0.25839,-0.110244 -0.43409,-0.320394 -0.17225,-0.213597 -0.26527,-0.52021 -0.0896,-0.310059 -0.0896,-0.713135 0,-0.458198 0.11024,-0.785483 0.11369,-0.330729 0.30662,-0.54088 0.19637,-0.210151 0.45819,-0.310059 0.26528,-0.103353 0.57189,-0.103353 0.14814,0 0.28594,0.02756 0.14125,0.02756 0.25839,0.07235 0.11713,0.04479 0.2067,0.103353 0.093,0.05857 0.13436,0.09991 0.0413,0.04134 0.0551,0.06546 0.0172,0.02412 0.0276,0.05857 0.0103,0.03101 0.0138,0.07235 0.003,0.04134 0.003,0.103353 0,0.134359 -0.031,0.189481 -0.031,0.05168 -0.0758,0.05168 -0.0517,0 -0.12058,-0.05512 -0.0655,-0.05857 -0.16881,-0.127469 -0.10335,-0.0689 -0.25149,-0.124024 -0.14469,-0.05857 -0.34451,-0.05857 -0.40997,0 -0.63045,0.316949 -0.21704,0.313504 -0.21704,0.912951 0,0.299723 0.0551,0.5271 0.0586,0.223931 0.16881,0.375515 0.11024,0.151585 0.26871,0.227377 0.16192,0.07235 0.36863,0.07235 0.19637,0 0.34451,-0.06201 0.14814,-0.06201 0.25494,-0.134359 0.11024,-0.07579 0.18259,-0.134359 0.0758,-0.06201 0.11713,-0.06201 0.0241,0 0.0413,0.01378 0.0172,0.01378 0.0276,0.04823 0.0138,0.03101 0.0172,0.08268 0.007,0.04823 0.007,0.117133 z m 3.3004,0.468533 q 0,0.02756 -0.0138,0.04823 -0.0138,0.02067 -0.0482,0.03445 -0.031,0.01378 -0.0896,0.02067 -0.0586,0.0069 -0.14814,0.0069 -0.093,0 -0.15503,-0.0069 -0.0586,-0.0034 -0.0999,-0.01378 -0.0413,-0.01378 -0.0689,-0.03445 -0.0241,-0.02412 -0.0448,-0.05512 l -1.30913,-1.715658 v 1.719103 q 0,0.02756 -0.0138,0.04823 -0.0138,0.01722 -0.0448,0.03101 -0.031,0.01378 -0.0861,0.02067 -0.0551,0.0069 -0.14125,0.0069 -0.0827,0 -0.1378,-0.0069 -0.0551,-0.0069 -0.0896,-0.02067 -0.031,-0.01378 -0.0448,-0.03101 -0.0103,-0.02067 -0.0103,-0.04823 V 9.2366609 q 0,-0.027561 0.0103,-0.048231 0.0138,-0.020671 0.0448,-0.034451 0.0344,-0.01378 0.0896,-0.020671 0.0551,-0.00689 0.1378,-0.00689 0.0861,0 0.14125,0.00689 0.0551,0.00689 0.0861,0.020671 0.031,0.01378 0.0448,0.034451 0.0138,0.020671 0.0138,0.048231 V 12.04097 l 1.17133,-1.288466 q 0.0276,-0.03445 0.0586,-0.05512 0.031,-0.02412 0.0723,-0.0379 0.0448,-0.01722 0.10336,-0.02067 0.0586,-0.0069 0.14125,-0.0069 0.0861,0 0.14469,0.0069 0.0586,0.0034 0.093,0.01722 0.0379,0.01033 0.0517,0.03101 0.0172,0.01723 0.0172,0.04823 0,0.04134 -0.0241,0.08268 -0.0207,0.04134 -0.0723,0.09646 l -1.1231,1.123102 1.2609,1.636422 q 0.0448,0.05857 0.062,0.09646 0.0207,0.03445 0.0207,0.06546 z m 5.10908,-1.58819 q 0,0.403077 -0.0896,0.726916 -0.0861,0.320394 -0.25838,0.54777 -0.16881,0.227377 -0.41686,0.347955 -0.24805,0.120579 -0.56844,0.120579 -0.14814,0 -0.27561,-0.03101 -0.12402,-0.02756 -0.2446,-0.09302 -0.12058,-0.06546 -0.24116,-0.165364 -0.12058,-0.09991 -0.25493,-0.241157 v 0.37896 q 0,0.02756 -0.0138,0.04823 -0.0138,0.02067 -0.0448,0.03445 -0.031,0.01033 -0.0792,0.01722 -0.0448,0.0069 -0.11713,0.0069 -0.0689,0 -0.11713,-0.0069 -0.0482,-0.0069 -0.0792,-0.01722 -0.031,-0.01378 -0.0413,-0.03445 -0.0103,-0.02067 -0.0103,-0.04823 V 9.2366609 q 0,-0.027561 0.0103,-0.048231 0.0138,-0.020671 0.0448,-0.034451 0.0344,-0.01378 0.0896,-0.020671 0.0551,-0.00689 0.1378,-0.00689 0.0861,0 0.14125,0.00689 0.0551,0.00689 0.0861,0.020671 0.031,0.01378 0.0448,0.034451 0.0138,0.020671 0.0138,0.048231 v 1.8569081 q 0.13781,-0.141249 0.26527,-0.237712 0.13092,-0.09646 0.25494,-0.15503 0.12403,-0.06201 0.24805,-0.08957 0.12402,-0.02756 0.26183,-0.02756 0.33762,0 0.57533,0.134359 0.24115,0.134359 0.38929,0.361735 0.15159,0.223932 0.22049,0.5271 0.0689,0.303169 0.0689,0.640788 z m -0.59944,0.06546 q 0,-0.237712 -0.0379,-0.461643 -0.0344,-0.223931 -0.12402,-0.396186 -0.0896,-0.172255 -0.23772,-0.275608 -0.14814,-0.106798 -0.36862,-0.106798 -0.11024,0 -0.21704,0.03101 -0.1068,0.03101 -0.21704,0.103353 -0.11025,0.07235 -0.23083,0.186035 -0.11713,0.113688 -0.25149,0.285943 v 1.23679 q 0.23427,0.285943 0.44787,0.437528 0.21359,0.148139 0.44441,0.148139 0.2136,0 0.36518,-0.103353 0.15159,-0.103353 0.24461,-0.272163 0.0965,-0.172255 0.1378,-0.382406 0.0448,-0.213596 0.0448,-0.430637 z m 3.26595,-1.371149 q 0,0.07579 -0.003,0.127469 -0.003,0.05168 -0.0138,0.08268 -0.0103,0.02756 -0.0276,0.04479 -0.0138,0.01378 -0.0413,0.01378 -0.0276,0 -0.0689,-0.01378 -0.0379,-0.01722 -0.0896,-0.03101 -0.0482,-0.01723 -0.11025,-0.03101 -0.062,-0.01378 -0.13435,-0.01378 -0.0861,0 -0.16881,0.03445 -0.0827,0.03445 -0.1757,0.113689 -0.0896,0.07924 -0.18948,0.210151 -0.0999,0.130913 -0.22049,0.320394 v 2.039497 q 0,0.02756 -0.0138,0.04823 -0.0138,0.01722 -0.0448,0.03101 -0.031,0.01378 -0.0861,0.02067 -0.0551,0.0069 -0.14124,0.0069 -0.0827,0 -0.13781,-0.0069 -0.0551,-0.0069 -0.0896,-0.02067 -0.031,-0.01378 -0.0448,-0.03101 -0.0103,-0.02067 -0.0103,-0.04823 v -3.100588 q 0,-0.02756 0.0103,-0.04479 0.0103,-0.02067 0.0413,-0.03445 0.031,-0.01722 0.0792,-0.02067 0.0482,-0.0069 0.12747,-0.0069 0.0758,0 0.12402,0.0069 0.0517,0.0034 0.0792,0.02067 0.0276,0.01378 0.0379,0.03445 0.0138,0.01723 0.0138,0.04479 v 0.451308 q 0.12747,-0.186035 0.23771,-0.303168 0.11369,-0.117134 0.2136,-0.18259 0.0999,-0.0689 0.19637,-0.09302 0.0999,-0.02756 0.19981,-0.02756 0.0448,0 0.0999,0.0069 0.0586,0.0034 0.12058,0.01723 0.062,0.01378 0.11024,0.03101 0.0517,0.01722 0.0724,0.03445 0.0207,0.01723 0.0276,0.03445 0.007,0.01378 0.0103,0.0379 0.007,0.02412 0.007,0.07235 0.003,0.04479 0.003,0.124023 z m 3.41754,1.312582 q 0,0.378961 -0.0999,0.699355 -0.0999,0.316949 -0.29973,0.547771 -0.19637,0.230821 -0.49609,0.361735 -0.29628,0.127469 -0.68902,0.127469 -0.38241,0 -0.66835,-0.113688 -0.2825,-0.113689 -0.47198,-0.33073 -0.18948,-0.217041 -0.28249,-0.5271 -0.093,-0.310059 -0.093,-0.7028 0,-0.37896 0.0965,-0.695909 0.0999,-0.320395 0.29628,-0.551216 0.19981,-0.230822 0.49609,-0.35829 0.29628,-0.127469 0.69247,-0.127469 0.3824,0 0.6649,0.113688 0.28594,0.113689 0.47543,0.33073 0.18948,0.217041 0.28249,0.5271 0.0965,0.310058 0.0965,0.699354 z m -0.59945,0.0379 q 0,-0.251493 -0.0482,-0.475424 -0.0448,-0.223931 -0.15159,-0.392741 -0.10679,-0.16881 -0.28939,-0.265273 -0.18259,-0.09991 -0.45475,-0.09991 -0.25149,0 -0.43408,0.08957 -0.17915,0.08957 -0.29628,0.254937 -0.11713,0.16192 -0.1757,0.385851 -0.0551,0.223932 -0.0551,0.489204 0,0.254937 0.0448,0.478869 0.0482,0.223931 0.15503,0.392741 0.11024,0.165365 0.29283,0.265272 0.18259,0.09646 0.45475,0.09646 0.24805,0 0.43064,-0.08957 0.18259,-0.08957 0.29972,-0.251493 0.11714,-0.161919 0.17226,-0.38585 0.0551,-0.223932 0.0551,-0.492649 z m 5.74642,-1.56063 q 0,0.02412 -0.007,0.05857 -0.007,0.03445 -0.0241,0.08613 l -0.91295,2.945559 q -0.0103,0.0379 -0.0345,0.06201 -0.0207,0.02412 -0.062,0.0379 -0.0379,0.01378 -0.10679,0.01722 -0.0689,0.0069 -0.17226,0.0069 -0.1068,0 -0.17914,-0.0069 -0.0724,-0.0069 -0.11714,-0.02067 -0.0413,-0.01378 -0.062,-0.0379 -0.0207,-0.02412 -0.031,-0.05857 l -0.65112,-2.249649 -0.007,-0.03101 -0.007,0.03101 -0.60289,2.249649 q -0.0103,0.0379 -0.0345,0.06201 -0.0207,0.02412 -0.0655,0.0379 -0.0448,0.01378 -0.11713,0.01722 -0.0689,0.0069 -0.17226,0.0069 -0.1068,0 -0.1757,-0.0069 -0.0654,-0.0069 -0.11024,-0.02067 -0.0413,-0.01378 -0.062,-0.0379 -0.0207,-0.02412 -0.031,-0.05857 l -0.90606,-2.945559 q -0.0172,-0.05168 -0.0241,-0.08613 -0.007,-0.03445 -0.007,-0.05857 0,-0.03101 0.0138,-0.04823 0.0138,-0.02067 0.0448,-0.03101 0.0344,-0.01378 0.0896,-0.01723 0.0551,-0.0034 0.13436,-0.0034 0.0965,0 0.15503,0.0069 0.0586,0.0034 0.0896,0.01722 0.031,0.01033 0.0448,0.03445 0.0138,0.02067 0.0241,0.05168 l 0.74758,2.556262 0.007,0.03101 0.007,-0.03101 0.68558,-2.556262 q 0.007,-0.03101 0.0207,-0.05168 0.0172,-0.02412 0.0482,-0.03445 0.031,-0.01378 0.0827,-0.01722 0.0551,-0.0069 0.14125,-0.0069 0.0827,0 0.13436,0.0069 0.0551,0.0034 0.0861,0.01722 0.031,0.01033 0.0448,0.03101 0.0138,0.02067 0.0207,0.04823 l 0.7407,2.563153 0.007,0.03101 0.003,-0.03101 0.73725,-2.556262 q 0.007,-0.03101 0.0207,-0.05168 0.0172,-0.02412 0.0482,-0.03445 0.0344,-0.01378 0.0896,-0.01722 0.0586,-0.0069 0.14814,-0.0069 0.0827,0 0.13091,0.0034 0.0517,0.0034 0.0792,0.01723 0.031,0.01378 0.0413,0.03101 0.0138,0.01722 0.0138,0.04823 z m 3.3762,3.107478 q 0,0.02756 -0.0138,0.04823 -0.0138,0.01722 -0.0448,0.03101 -0.031,0.01378 -0.0861,0.02067 -0.0551,0.0069 -0.1378,0.0069 -0.0861,0 -0.14125,-0.0069 -0.0551,-0.0069 -0.0861,-0.02067 -0.031,-0.01378 -0.0448,-0.03101 -0.0138,-0.02067 -0.0138,-0.04823 v -1.815566 q 0,-0.265273 -0.0413,-0.427192 -0.0413,-0.16192 -0.12057,-0.279053 -0.0792,-0.117133 -0.20671,-0.179145 -0.12402,-0.06201 -0.28939,-0.06201 -0.21359,0 -0.42719,0.151584 -0.2136,0.151585 -0.44786,0.444418 v 2.166966 q 0,0.02756 -0.0138,0.04823 -0.0138,0.01722 -0.0448,0.03101 -0.031,0.01378 -0.0861,0.02067 -0.0551,0.0069 -0.14125,0.0069 -0.0827,0 -0.1378,-0.0069 -0.0551,-0.0069 -0.0896,-0.02067 -0.031,-0.01378 -0.0448,-0.03101 -0.0103,-0.02067 -0.0103,-0.04823 v -3.100588 q 0,-0.02756 0.0103,-0.04479 0.0103,-0.02067 0.0413,-0.03445 0.031,-0.01722 0.0792,-0.02067 0.0482,-0.0069 0.12747,-0.0069 0.0758,0 0.12402,0.0069 0.0517,0.0034 0.0792,0.02067 0.0276,0.01378 0.0379,0.03445 0.0138,0.01723 0.0138,0.04479 v 0.409967 q 0.26182,-0.292833 0.52021,-0.427192 0.26182,-0.137804 0.5271,-0.137804 0.31005,0 0.5202,0.106798 0.2136,0.103353 0.34451,0.279053 0.13092,0.1757 0.18604,0.413412 0.0586,0.234266 0.0586,0.564996 z m 4.33048,-4.3752737 q 0,0.065457 -0.007,0.1067981 -0.007,0.037896 -0.0172,0.062012 -0.007,0.024116 -0.0207,0.034451 -0.0138,0.00689 -0.0344,0.00689 -0.0241,0 -0.062,-0.01378 -0.0345,-0.017225 -0.0861,-0.034451 -0.0517,-0.02067 -0.12403,-0.034451 -0.0689,-0.017226 -0.16191,-0.017226 -0.12747,0 -0.21705,0.041341 -0.0896,0.041341 -0.14469,0.1309138 -0.0551,0.086127 -0.0792,0.2273764 -0.0241,0.1378042 -0.0241,0.3376192 v 0.33762 h 0.69246 q 0.0276,0 0.0448,0.01378 0.0207,0.01034 0.0345,0.04134 0.0172,0.02756 0.0241,0.07235 0.0103,0.04479 0.0103,0.110243 0,0.124023 -0.031,0.179145 -0.031,0.05512 -0.0827,0.05512 h -0.69246 v 2.718182 q 0,0.02756 -0.0138,0.04823 -0.0138,0.01722 -0.0482,0.03101 -0.031,0.01378 -0.0861,0.02067 -0.0551,0.0069 -0.13781,0.0069 -0.0827,0 -0.1378,-0.0069 -0.0551,-0.0069 -0.0896,-0.02067 -0.031,-0.01378 -0.0448,-0.03101 -0.0138,-0.02067 -0.0138,-0.04823 v -2.718182 h -0.43753 q -0.0551,0 -0.0827,-0.05512 -0.0276,-0.05512 -0.0276,-0.179145 0,-0.06546 0.007,-0.110243 0.007,-0.04479 0.0207,-0.07235 0.0138,-0.03101 0.0344,-0.04134 0.0207,-0.01378 0.0482,-0.01378 h 0.43753 v -0.320394 q 0,-0.323839 0.0586,-0.5546609 0.062,-0.2342666 0.18603,-0.3824058 0.12403,-0.1481392 0.31006,-0.2170412 0.18948,-0.072347 0.44442,-0.072347 0.12058,0 0.23427,0.024116 0.11368,0.020671 0.1757,0.048231 0.062,0.024116 0.0827,0.044786 0.0207,0.020671 0.0345,0.055122 0.0138,0.031006 0.0172,0.079237 0.007,0.044786 0.007,0.1102431 z m 3.19017,2.7905287 q 0,0.378961 -0.0999,0.699355 -0.0999,0.316949 -0.29973,0.547771 -0.19637,0.230821 -0.49609,0.361735 -0.29628,0.127469 -0.68902,0.127469 -0.38241,0 -0.66835,-0.113688 -0.2825,-0.113689 -0.47198,-0.33073 -0.18948,-0.217041 -0.2825,-0.5271 -0.093,-0.310059 -0.093,-0.7028 0,-0.37896 0.0965,-0.695909 0.0999,-0.320395 0.29628,-0.551216 0.19981,-0.230822 0.49609,-0.35829 0.29628,-0.127469 0.69247,-0.127469 0.3824,0 0.6649,0.113688 0.28594,0.113689 0.47542,0.33073 0.18948,0.217041 0.2825,0.5271 0.0965,0.310058 0.0965,0.699354 z m -0.59945,0.0379 q 0,-0.251493 -0.0482,-0.475424 -0.0448,-0.223931 -0.15159,-0.392741 -0.1068,-0.16881 -0.28939,-0.265273 -0.18259,-0.09991 -0.45475,-0.09991 -0.25149,0 -0.43408,0.08957 -0.17915,0.08957 -0.29628,0.254937 -0.11713,0.16192 -0.1757,0.385851 -0.0551,0.223932 -0.0551,0.489204 0,0.254937 0.0448,0.478869 0.0482,0.223931 0.15502,0.392741 0.11025,0.165365 0.29284,0.265272 0.18259,0.09646 0.45475,0.09646 0.24805,0 0.43064,-0.08957 0.18259,-0.08957 0.29972,-0.251493 0.11714,-0.161919 0.17226,-0.38585 0.0551,-0.223932 0.0551,-0.492649 z m 3.64836,1.481392 q 0.0276,0.04823 0.0276,0.08268 0,0.03101 -0.0344,0.05168 -0.031,0.02067 -0.0999,0.02756 -0.0655,0.01033 -0.17226,0.01033 -0.10335,0 -0.16536,-0.0069 -0.0586,-0.0034 -0.0965,-0.01378 -0.0345,-0.01378 -0.0551,-0.03101 -0.0172,-0.02067 -0.031,-0.04479 l -0.74414,-1.2299 -0.7407,1.2299 q -0.0138,0.02412 -0.0344,0.04479 -0.0172,0.01722 -0.0551,0.03101 -0.0345,0.01033 -0.093,0.01378 -0.0586,0.0069 -0.15503,0.0069 -0.0999,0 -0.16536,-0.01033 -0.062,-0.0069 -0.093,-0.02756 -0.0276,-0.02067 -0.0276,-0.05168 0.003,-0.03445 0.0345,-0.08268 l 0.96463,-1.512398 -0.91295,-1.457277 q -0.0276,-0.04823 -0.031,-0.07924 0,-0.03445 0.031,-0.05512 0.0345,-0.02412 0.0999,-0.03101 0.0689,-0.0069 0.17915,-0.0069 0.0999,0 0.15847,0.0069 0.062,0.0034 0.0965,0.01378 0.0344,0.01033 0.0517,0.02756 0.0172,0.01722 0.031,0.04134 l 0.70624,1.154108 0.71658,-1.154108 q 0.0138,-0.02067 0.031,-0.0379 0.0172,-0.01723 0.0448,-0.02756 0.031,-0.01378 0.0827,-0.01722 0.0551,-0.0069 0.14814,-0.0069 0.0999,0 0.16192,0.0069 0.0654,0.0069 0.0965,0.02756 0.031,0.01723 0.0276,0.05168 -0.003,0.03445 -0.0345,0.08613 l -0.90606,1.440051 z m -61.49672,9.02271 q 0,0.34451 -0.0517,0.554661 -0.0517,0.213596 -0.16192,0.35829 -0.11024,0.144694 -0.28249,0.217041 -0.17226,0.07579 -0.41686,0.07579 -0.11024,0 -0.18948,-0.01378 -0.0758,-0.01378 -0.11714,-0.03101 -0.0413,-0.01722 -0.0551,-0.04134 -0.0172,-0.02067 -0.0241,-0.05168 -0.007,-0.02756 -0.007,-0.05857 -0.003,-0.03101 -0.003,-0.07579 0,-0.06201 0.007,-0.106798 0.003,-0.04479 0.0172,-0.07235 0.0103,-0.02756 0.0276,-0.04134 0.0138,-0.01034 0.0379,-0.01034 0.0207,0 0.0792,0.0069 0.062,0.01034 0.14125,0.01034 0.11369,0 0.19293,-0.03445 0.0827,-0.03445 0.13436,-0.113688 0.0517,-0.07579 0.0758,-0.199816 0.0241,-0.124024 0.0241,-0.375516 v -3.234946 q 0,-0.02412 0.0138,-0.04479 0.0138,-0.02067 0.0448,-0.03445 0.0344,-0.01378 0.0896,-0.02067 0.0551,-0.0069 0.13781,-0.0069 0.0827,0 0.1378,0.0069 0.0551,0.0069 0.0861,0.02067 0.0345,0.01378 0.0482,0.03445 0.0138,0.02067 0.0138,0.04479 z m 0.0655,-4.285701 q 0,0.199815 -0.0758,0.272163 -0.0758,0.07235 -0.27905,0.07235 -0.19981,0 -0.27216,-0.0689 -0.0724,-0.07235 -0.0724,-0.268718 0,-0.199816 0.0724,-0.272163 0.0758,-0.07235 0.27905,-0.07235 0.20326,0 0.27561,0.07235 0.0724,0.0689 0.0724,0.265273 z m 3.64491,4.147897 q 0,0.02756 -0.0138,0.04823 -0.0103,0.01722 -0.0413,0.03101 -0.031,0.01378 -0.0827,0.02067 -0.0482,0.0069 -0.12058,0.0069 -0.0792,0 -0.13092,-0.0069 -0.0482,-0.0069 -0.0792,-0.02067 -0.0276,-0.01378 -0.0379,-0.03101 -0.0103,-0.02067 -0.0103,-0.04823 v -0.409966 q -0.26528,0.292833 -0.52366,0.427192 -0.25838,0.134359 -0.52365,0.134359 -0.31006,0 -0.52366,-0.103353 -0.21015,-0.103353 -0.34106,-0.279053 -0.13092,-0.179145 -0.18948,-0.413412 -0.0551,-0.237712 -0.0551,-0.575331 v -1.881023 q 0,-0.02756 0.0103,-0.04479 0.0138,-0.02067 0.0482,-0.03445 0.0345,-0.01722 0.0896,-0.02067 0.0551,-0.0069 0.13781,-0.0069 0.0827,0 0.1378,0.0069 0.0551,0.0034 0.0861,0.02067 0.0344,0.01378 0.0482,0.03445 0.0138,0.01723 0.0138,0.04479 v 1.805231 q 0,0.272162 0.0379,0.437527 0.0413,0.16192 0.12057,0.279053 0.0827,0.113688 0.20671,0.179145 0.12402,0.06201 0.28939,0.06201 0.21359,0 0.42375,-0.151584 0.21359,-0.151585 0.4513,-0.444418 v -2.166966 q 0,-0.02756 0.0103,-0.04479 0.0138,-0.02067 0.0482,-0.03445 0.0344,-0.01722 0.0861,-0.02067 0.0551,-0.0069 0.14125,-0.0069 0.0827,0 0.1378,0.0069 0.0551,0.0034 0.0861,0.02067 0.031,0.01378 0.0448,0.03445 0.0172,0.01723 0.0172,0.04479 z m 5.64996,0 q 0,0.02756 -0.0138,0.04823 -0.0138,0.01722 -0.0448,0.03101 -0.031,0.01378 -0.0861,0.02067 -0.0551,0.0069 -0.13781,0.0069 -0.0861,0 -0.14125,-0.0069 -0.0551,-0.0069 -0.0896,-0.02067 -0.031,-0.01378 -0.0448,-0.03101 -0.0138,-0.02067 -0.0138,-0.04823 v -1.884468 q 0,-0.196371 -0.0345,-0.35829 -0.0344,-0.16192 -0.11024,-0.279053 -0.0758,-0.117133 -0.19293,-0.179145 -0.11713,-0.06201 -0.2756,-0.06201 -0.19637,0 -0.39619,0.151584 -0.19637,0.151585 -0.43408,0.444418 v 2.166966 q 0,0.02756 -0.0138,0.04823 -0.0138,0.01722 -0.0482,0.03101 -0.031,0.01378 -0.0861,0.02067 -0.0551,0.0069 -0.13781,0.0069 -0.0792,0 -0.1378,-0.0069 -0.0551,-0.0069 -0.0896,-0.02067 -0.031,-0.01378 -0.0448,-0.03101 -0.0103,-0.02067 -0.0103,-0.04823 v -1.884468 q 0,-0.196371 -0.0379,-0.35829 -0.0379,-0.16192 -0.11369,-0.279053 -0.0758,-0.117133 -0.19292,-0.179145 -0.11369,-0.06201 -0.27217,-0.06201 -0.19637,0 -0.39618,0.151584 -0.19982,0.151585 -0.43408,0.444418 v 2.166966 q 0,0.02756 -0.0138,0.04823 -0.0138,0.01722 -0.0448,0.03101 -0.031,0.01378 -0.0861,0.02067 -0.0551,0.0069 -0.14125,0.0069 -0.0827,0 -0.1378,-0.0069 -0.0551,-0.0069 -0.0896,-0.02067 -0.031,-0.01378 -0.0448,-0.03101 -0.0103,-0.02067 -0.0103,-0.04823 v -3.100587 q 0,-0.02756 0.0103,-0.04479 0.0103,-0.02067 0.0413,-0.03445 0.031,-0.01722 0.0792,-0.02067 0.0482,-0.0069 0.12747,-0.0069 0.0758,0 0.12402,0.0069 0.0517,0.0034 0.0792,0.02067 0.0276,0.01378 0.0379,0.03445 0.0138,0.01723 0.0138,0.04479 v 0.409966 q 0.26183,-0.292833 0.50643,-0.427192 0.24805,-0.137804 0.49954,-0.137804 0.19293,0 0.34451,0.04479 0.15503,0.04479 0.27217,0.127469 0.11713,0.07924 0.19981,0.192925 0.0827,0.110244 0.1378,0.248048 0.15503,-0.16881 0.29284,-0.285944 0.14125,-0.117133 0.26872,-0.18948 0.13091,-0.07235 0.25149,-0.103353 0.12402,-0.03445 0.24804,-0.03445 0.29973,0 0.50299,0.106798 0.20326,0.103353 0.32728,0.279053 0.12747,0.1757 0.17915,0.413412 0.0551,0.234266 0.0551,0.496094 z m 3.88952,-1.598525 q 0,0.406522 -0.0896,0.730361 -0.0861,0.323839 -0.25838,0.551215 -0.16881,0.223932 -0.4203,0.347955 -0.25149,0.120579 -0.57533,0.120579 -0.13781,0 -0.25494,-0.02756 -0.11713,-0.02756 -0.23082,-0.08613 -0.11024,-0.05857 -0.22049,-0.14814 -0.11024,-0.08957 -0.23426,-0.210151 v 1.550294 q 0,0.02756 -0.0138,0.04823 -0.0138,0.02067 -0.0448,0.03445 -0.031,0.01378 -0.0861,0.02067 -0.0551,0.0069 -0.14125,0.0069 -0.0827,0 -0.1378,-0.0069 -0.0551,-0.0069 -0.0896,-0.02067 -0.031,-0.01378 -0.0448,-0.03445 -0.0103,-0.02067 -0.0103,-0.04823 v -4.330487 q 0,-0.03101 0.0103,-0.04823 0.0103,-0.02067 0.0413,-0.03445 0.031,-0.01378 0.0792,-0.01723 0.0482,-0.0069 0.11713,-0.0069 0.0724,0 0.11714,0.0069 0.0482,0.0034 0.0792,0.01723 0.031,0.01378 0.0413,0.03445 0.0138,0.01723 0.0138,0.04823 v 0.416856 q 0.14125,-0.144694 0.27217,-0.251492 0.13091,-0.106798 0.26182,-0.1757 0.13436,-0.07235 0.27217,-0.106798 0.14125,-0.0379 0.29628,-0.0379 0.33761,0 0.57533,0.130914 0.23771,0.130914 0.38585,0.35829 0.15158,0.227376 0.22048,0.530545 0.0689,0.299724 0.0689,0.637343 z m -0.59945,0.06546 q 0,-0.237712 -0.0379,-0.458198 -0.0344,-0.223931 -0.12402,-0.396186 -0.0861,-0.172255 -0.23427,-0.275608 -0.14814,-0.103353 -0.36862,-0.103353 -0.11025,0 -0.21704,0.03445 -0.1068,0.03101 -0.21705,0.103353 -0.11024,0.0689 -0.23082,0.186035 -0.12058,0.113688 -0.25493,0.282498 v 1.233345 q 0.23426,0.285943 0.44441,0.437528 0.21015,0.151584 0.44098,0.151584 0.21359,0 0.36518,-0.103353 0.15503,-0.103353 0.24804,-0.275608 0.0965,-0.172255 0.14125,-0.385851 0.0448,-0.213596 0.0448,-0.430637 z m 3.36586,0.68902 q 0,0.237711 -0.0896,0.423747 -0.0861,0.186035 -0.24805,0.313503 -0.16192,0.127469 -0.38585,0.192926 -0.22393,0.06546 -0.49265,0.06546 -0.16537,0 -0.31695,-0.02756 -0.14814,-0.02412 -0.26872,-0.06201 -0.11713,-0.04134 -0.19981,-0.08268 -0.0827,-0.04479 -0.12058,-0.07924 -0.0379,-0.03445 -0.0551,-0.09646 -0.0172,-0.06201 -0.0172,-0.16881 0,-0.06546 0.007,-0.110243 0.007,-0.04479 0.0172,-0.07235 0.0103,-0.02756 0.0276,-0.0379 0.0207,-0.01378 0.0448,-0.01378 0.0379,0 0.11025,0.04823 0.0758,0.04479 0.18259,0.09991 0.11024,0.05512 0.25838,0.103353 0.14814,0.04479 0.34106,0.04479 0.1447,0 0.26183,-0.03101 0.11714,-0.03101 0.20326,-0.08957 0.0861,-0.06201 0.13092,-0.155029 0.0482,-0.09302 0.0482,-0.220486 0,-0.130914 -0.0689,-0.220486 -0.0655,-0.08957 -0.1757,-0.158475 -0.11025,-0.0689 -0.24805,-0.120578 -0.1378,-0.05512 -0.28594,-0.113689 -0.1447,-0.05857 -0.28595,-0.130913 -0.1378,-0.07579 -0.24804,-0.18259 -0.11025,-0.106799 -0.17915,-0.254938 -0.0655,-0.148139 -0.0655,-0.354845 0,-0.18259 0.0689,-0.347955 0.0723,-0.168809 0.21359,-0.292833 0.14125,-0.127469 0.3514,-0.203261 0.2136,-0.07579 0.4961,-0.07579 0.12402,0 0.24804,0.02067 0.12403,0.02067 0.22393,0.05168 0.0999,0.03101 0.16881,0.0689 0.0724,0.03445 0.1068,0.06201 0.0379,0.02756 0.0482,0.04823 0.0138,0.02067 0.0172,0.04823 0.007,0.02412 0.0103,0.06201 0.007,0.0379 0.007,0.09302 0,0.05857 -0.007,0.103353 -0.003,0.04134 -0.0172,0.0689 -0.0103,0.02756 -0.0276,0.04134 -0.0172,0.01034 -0.0379,0.01034 -0.031,0 -0.0896,-0.0379 -0.0586,-0.0379 -0.15158,-0.07924 -0.093,-0.04479 -0.22049,-0.08268 -0.12402,-0.0379 -0.28594,-0.0379 -0.1447,0 -0.25494,0.03445 -0.11024,0.03101 -0.18259,0.09302 -0.0689,0.05857 -0.1068,0.141249 -0.0344,0.08268 -0.0344,0.179145 0,0.134359 0.0689,0.227377 0.0689,0.08957 0.17915,0.158474 0.11024,0.0689 0.25149,0.124024 0.14125,0.05512 0.28594,0.113688 0.14814,0.05857 0.28939,0.130914 0.14469,0.07235 0.25494,0.1757 0.11024,0.103353 0.1757,0.248047 0.0689,0.144694 0.0689,0.34451 z m 5.29167,-0.740696 q 0,0.37896 -0.0999,0.699354 -0.0999,0.316949 -0.29972,0.547771 -0.19637,0.230821 -0.4961,0.361735 -0.29627,0.127469 -0.68902,0.127469 -0.3824,0 -0.66834,-0.113688 -0.2825,-0.113689 -0.47198,-0.33073 -0.18948,-0.217041 -0.2825,-0.5271 -0.093,-0.310059 -0.093,-0.7028 0,-0.37896 0.0965,-0.695909 0.0999,-0.320395 0.29628,-0.551216 0.19982,-0.230822 0.4961,-0.35829 0.29627,-0.127469 0.69246,-0.127469 0.38241,0 0.66491,0.113688 0.28594,0.113689 0.47542,0.33073 0.18948,0.217041 0.2825,0.5271 0.0965,0.310058 0.0965,0.699355 z m -0.59945,0.0379 q 0,-0.251493 -0.0482,-0.475424 -0.0448,-0.223931 -0.15158,-0.392741 -0.1068,-0.16881 -0.28939,-0.265273 -0.18259,-0.09991 -0.45475,-0.09991 -0.2515,0 -0.43409,0.08957 -0.17914,0.08957 -0.29628,0.254937 -0.11713,0.16192 -0.1757,0.385851 -0.0551,0.223932 -0.0551,0.489204 0,0.254937 0.0448,0.478869 0.0482,0.223931 0.15503,0.392741 0.11024,0.165365 0.29283,0.265272 0.18259,0.09646 0.45476,0.09646 0.24804,0 0.43063,-0.08957 0.18259,-0.08957 0.29973,-0.251492 0.11713,-0.16192 0.17225,-0.385851 0.0551,-0.223932 0.0551,-0.492649 z m 3.94808,-1.56063 q 0,0.01378 -0.003,0.03101 0,0.01378 -0.003,0.03101 -0.003,0.01723 -0.0103,0.0379 -0.003,0.02067 -0.0103,0.04479 l -1.05764,2.945559 q -0.0138,0.0379 -0.0379,0.06201 -0.0207,0.02411 -0.0654,0.0379 -0.0448,0.01378 -0.11369,0.01722 -0.0689,0.0069 -0.17226,0.0069 -0.10335,0 -0.17225,-0.0069 -0.0689,-0.0069 -0.11369,-0.02067 -0.0413,-0.01378 -0.0655,-0.0379 -0.0241,-0.02412 -0.0379,-0.05857 l -1.0542,-2.945559 q -0.0138,-0.04134 -0.0241,-0.07235 -0.007,-0.03101 -0.0103,-0.04479 0,-0.01722 0,-0.02756 0,-0.02756 0.0138,-0.04823 0.0138,-0.02067 0.0448,-0.03101 0.0344,-0.01378 0.0861,-0.01722 0.0551,-0.0034 0.13436,-0.0034 0.0999,0 0.15847,0.0069 0.062,0.0034 0.093,0.01723 0.0344,0.01378 0.0482,0.03445 0.0172,0.02067 0.031,0.05168 l 0.87505,2.556262 0.0138,0.04134 0.0103,-0.04134 0.86472,-2.556262 q 0.007,-0.03101 0.0241,-0.05168 0.0172,-0.02067 0.0482,-0.03445 0.0345,-0.01378 0.0896,-0.01723 0.0586,-0.0069 0.15158,-0.0069 0.0792,0 0.13091,0.0034 0.0517,0.0034 0.0792,0.01722 0.031,0.01378 0.0413,0.03445 0.0138,0.01723 0.0138,0.04479 z m 3.22117,1.422826 q 0,0.134358 -0.0689,0.192925 -0.0655,0.05512 -0.15159,0.05512 h -2.0326 q 0,0.258382 0.0517,0.465088 0.0517,0.206706 0.17226,0.354845 0.12058,0.148139 0.3135,0.227376 0.19293,0.07924 0.47198,0.07924 0.22049,0 0.39274,-0.03445 0.17226,-0.0379 0.29628,-0.08268 0.12747,-0.04479 0.2067,-0.07924 0.0827,-0.0379 0.12403,-0.0379 0.0241,0 0.0413,0.01378 0.0207,0.01034 0.031,0.03445 0.0103,0.02412 0.0138,0.0689 0.007,0.04134 0.007,0.103353 0,0.04479 -0.003,0.07924 -0.003,0.03101 -0.0103,0.05857 -0.003,0.02412 -0.0172,0.04479 -0.0103,0.02067 -0.031,0.04134 -0.0172,0.01722 -0.11024,0.06201 -0.093,0.04134 -0.24116,0.08268 -0.14813,0.04134 -0.34451,0.07235 -0.19292,0.03445 -0.41341,0.03445 -0.3824,0 -0.67179,-0.106798 -0.28594,-0.106798 -0.48231,-0.316949 -0.19638,-0.210151 -0.29628,-0.5271 -0.0999,-0.316949 -0.0999,-0.737251 0,-0.399631 0.10335,-0.71658 0.10335,-0.320395 0.29628,-0.540881 0.19637,-0.223931 0.47198,-0.341064 0.27561,-0.120579 0.61667,-0.120579 0.36518,0 0.62012,0.117133 0.25838,0.117134 0.42375,0.316949 0.16536,0.196371 0.24115,0.465089 0.0792,0.265272 0.0792,0.568441 z m -0.57189,-0.16881 q 0.0103,-0.447863 -0.19981,-0.7028 -0.20671,-0.254937 -0.61667,-0.254937 -0.21016,0 -0.36863,0.07924 -0.15847,0.07924 -0.26527,0.210151 -0.1068,0.130914 -0.16537,0.306614 -0.0586,0.172255 -0.0654,0.361735 z m 3.24873,-1.043865 q 0,0.07579 -0.003,0.127469 -0.003,0.05168 -0.0138,0.08268 -0.0103,0.02756 -0.0276,0.04479 -0.0138,0.01378 -0.0413,0.01378 -0.0276,0 -0.0689,-0.01378 -0.0379,-0.01723 -0.0896,-0.03101 -0.0482,-0.01723 -0.11024,-0.03101 -0.062,-0.01378 -0.13436,-0.01378 -0.0861,0 -0.16881,0.03445 -0.0827,0.03445 -0.1757,0.113689 -0.0896,0.07924 -0.18948,0.210151 -0.0999,0.130913 -0.22049,0.320394 v 2.039497 q 0,0.02756 -0.0138,0.04823 -0.0138,0.01722 -0.0448,0.03101 -0.031,0.01378 -0.0861,0.02067 -0.0551,0.0069 -0.14125,0.0069 -0.0827,0 -0.13781,-0.0069 -0.0551,-0.0069 -0.0896,-0.02067 -0.031,-0.01378 -0.0448,-0.03101 -0.0103,-0.02067 -0.0103,-0.04823 v -3.100587 q 0,-0.02756 0.0103,-0.04479 0.0103,-0.02067 0.0413,-0.03445 0.031,-0.01722 0.0792,-0.02067 0.0482,-0.0069 0.12747,-0.0069 0.0758,0 0.12403,0.0069 0.0517,0.0034 0.0792,0.02067 0.0276,0.01378 0.0379,0.03445 0.0138,0.01723 0.0138,0.04479 v 0.451307 q 0.12747,-0.186035 0.23771,-0.303168 0.11369,-0.117134 0.2136,-0.18259 0.0999,-0.0689 0.19637,-0.09302 0.0999,-0.02756 0.19981,-0.02756 0.0448,0 0.0999,0.0069 0.0586,0.0034 0.12058,0.01723 0.062,0.01378 0.11024,0.03101 0.0517,0.01723 0.0724,0.03445 0.0207,0.01722 0.0276,0.03445 0.007,0.01378 0.0103,0.0379 0.007,0.02412 0.007,0.07235 0.003,0.04479 0.003,0.124023 z m 3.85507,2.669951 q 0,0.09991 -0.0138,0.158475 -0.0138,0.05857 -0.0414,0.08613 -0.0276,0.02756 -0.0827,0.05168 -0.0551,0.02412 -0.12747,0.0379 -0.0689,0.01723 -0.14814,0.02756 -0.0792,0.01034 -0.15847,0.01034 -0.24116,0 -0.41341,-0.06201 -0.17226,-0.06546 -0.2825,-0.192926 -0.11024,-0.130913 -0.16192,-0.327284 -0.0482,-0.199816 -0.0482,-0.468533 v -1.812122 h -0.43408 q -0.0517,0 -0.0827,-0.05512 -0.031,-0.05512 -0.031,-0.179145 0,-0.06546 0.007,-0.110243 0.0103,-0.04479 0.0241,-0.07235 0.0138,-0.03101 0.0345,-0.04134 0.0241,-0.01378 0.0517,-0.01378 h 0.43064 V 18.73135 q 0,-0.02412 0.0103,-0.04479 0.0138,-0.02067 0.0448,-0.03445 0.0344,-0.01723 0.0896,-0.02412 0.0551,-0.0069 0.13781,-0.0069 0.0861,0 0.14125,0.0069 0.0551,0.0069 0.0861,0.02412 0.031,0.01378 0.0448,0.03445 0.0138,0.02067 0.0138,0.04479 v 0.737251 h 0.79582 q 0.0276,0 0.0482,0.01378 0.0207,0.01034 0.0344,0.04134 0.0172,0.02756 0.0241,0.07235 0.007,0.04479 0.007,0.110243 0,0.124023 -0.031,0.179145 -0.031,0.05512 -0.0827,0.05512 h -0.79582 v 1.729439 q 0,0.320395 0.093,0.485759 0.0965,0.16192 0.34106,0.16192 0.0792,0 0.14125,-0.01378 0.062,-0.01722 0.11024,-0.03445 0.0482,-0.01722 0.0827,-0.03101 0.0344,-0.01723 0.062,-0.01723 0.0172,0 0.031,0.01034 0.0172,0.0069 0.0241,0.03101 0.0103,0.02412 0.0172,0.06546 0.007,0.04134 0.007,0.103353 z m 3.42098,0.227376 q 0,0.02756 -0.0138,0.04823 -0.0138,0.01722 -0.0448,0.03101 -0.031,0.01378 -0.0861,0.02067 -0.0551,0.0069 -0.1378,0.0069 -0.0861,0 -0.14125,-0.0069 -0.0551,-0.0069 -0.0861,-0.02067 -0.031,-0.01378 -0.0448,-0.03101 -0.0138,-0.02067 -0.0138,-0.04823 v -1.815566 q 0,-0.265273 -0.0413,-0.427192 -0.0413,-0.16192 -0.12058,-0.279053 -0.0792,-0.117133 -0.2067,-0.179145 -0.12402,-0.06201 -0.28939,-0.06201 -0.2136,0 -0.42719,0.151584 -0.2136,0.151585 -0.44786,0.444418 v 2.166966 q 0,0.02756 -0.0138,0.04823 -0.0138,0.01722 -0.0448,0.03101 -0.031,0.01378 -0.0861,0.02067 -0.0551,0.0069 -0.14125,0.0069 -0.0827,0 -0.1378,-0.0069 -0.0551,-0.0069 -0.0896,-0.02067 -0.031,-0.01378 -0.0448,-0.03101 -0.0103,-0.02067 -0.0103,-0.04823 v -4.60265 q 0,-0.02756 0.0103,-0.04823 0.0138,-0.02067 0.0448,-0.03445 0.0344,-0.01378 0.0896,-0.02067 0.0551,-0.0069 0.1378,-0.0069 0.0861,0 0.14125,0.0069 0.0551,0.0069 0.0861,0.02067 0.031,0.01378 0.0448,0.03445 0.0138,0.02067 0.0138,0.04823 v 1.856908 q 0.2446,-0.258383 0.49264,-0.382406 0.24805,-0.127469 0.49954,-0.127469 0.31006,0 0.52021,0.106798 0.2136,0.103353 0.34451,0.279053 0.13092,0.1757 0.18604,0.413412 0.0586,0.234266 0.0586,0.568441 z m 3.68281,-1.684652 q 0,0.134358 -0.0689,0.192925 -0.0655,0.05512 -0.15159,0.05512 h -2.03261 q 0,0.258382 0.0517,0.465088 0.0517,0.206706 0.17226,0.354845 0.12057,0.148139 0.3135,0.227376 0.19292,0.07924 0.47198,0.07924 0.22048,0 0.39274,-0.03445 0.17225,-0.0379 0.29628,-0.08268 0.12747,-0.04479 0.2067,-0.07924 0.0827,-0.0379 0.12403,-0.0379 0.0241,0 0.0413,0.01378 0.0207,0.01034 0.031,0.03445 0.0103,0.02412 0.0138,0.0689 0.007,0.04134 0.007,0.103353 0,0.04479 -0.003,0.07924 -0.003,0.03101 -0.0103,0.05857 -0.003,0.02412 -0.0172,0.04479 -0.0103,0.02067 -0.031,0.04134 -0.0172,0.01722 -0.11024,0.06201 -0.093,0.04134 -0.24116,0.08268 -0.14814,0.04134 -0.34451,0.07235 -0.19292,0.03445 -0.41341,0.03445 -0.3824,0 -0.67179,-0.106798 -0.28595,-0.106798 -0.48232,-0.316949 -0.19637,-0.210151 -0.29627,-0.5271 -0.0999,-0.316949 -0.0999,-0.737251 0,-0.399631 0.10335,-0.71658 0.10335,-0.320395 0.29628,-0.540881 0.19637,-0.223931 0.47198,-0.341064 0.2756,-0.120579 0.61667,-0.120579 0.36518,0 0.62012,0.117133 0.25838,0.117134 0.42374,0.316949 0.16537,0.196371 0.24116,0.465089 0.0792,0.265272 0.0792,0.568441 z m -0.57189,-0.16881 q 0.0103,-0.447863 -0.19981,-0.7028 -0.20671,-0.254937 -0.61668,-0.254937 -0.21015,0 -0.36862,0.07924 -0.15848,0.07924 -0.26527,0.210151 -0.1068,0.130914 -0.16537,0.306614 -0.0586,0.172255 -0.0655,0.361735 z m 3.60013,1.853462 q 0,0.02756 -0.0138,0.04823 -0.0138,0.01722 -0.0448,0.03101 -0.031,0.01378 -0.0861,0.02067 -0.0551,0.0069 -0.14125,0.0069 -0.0827,0 -0.1378,-0.0069 -0.0551,-0.0069 -0.0896,-0.02067 -0.031,-0.01378 -0.0448,-0.03101 -0.0103,-0.02067 -0.0103,-0.04823 v -4.60265 q 0,-0.02756 0.0103,-0.04823 0.0138,-0.02067 0.0448,-0.03445 0.0344,-0.01378 0.0896,-0.02067 0.0551,-0.0069 0.1378,-0.0069 0.0861,0 0.14125,0.0069 0.0551,0.0069 0.0861,0.02067 0.031,0.01378 0.0448,0.03445 0.0138,0.02067 0.0138,0.04823 z m 3.38653,0.0034 q 0,0.04134 -0.0276,0.06201 -0.0276,0.02067 -0.0758,0.03101 -0.0482,0.01034 -0.14125,0.01034 -0.0896,0 -0.1447,-0.01034 -0.0517,-0.01033 -0.0758,-0.03101 -0.0241,-0.02067 -0.0241,-0.06201 v -0.310059 q -0.20326,0.217041 -0.45476,0.337619 -0.24804,0.120579 -0.5271,0.120579 -0.2446,0 -0.44441,-0.06546 -0.19637,-0.06201 -0.33762,-0.18259 -0.13781,-0.120579 -0.21705,-0.296279 -0.0758,-0.1757 -0.0758,-0.399631 0,-0.261827 0.1068,-0.454753 0.1068,-0.192925 0.30661,-0.320394 0.19982,-0.127469 0.48921,-0.18948 0.28939,-0.06546 0.65112,-0.06546 h 0.42719 v -0.241157 q 0,-0.179145 -0.0379,-0.316949 -0.0379,-0.137804 -0.12403,-0.227377 -0.0827,-0.09302 -0.21704,-0.137803 -0.13436,-0.04823 -0.33073,-0.04823 -0.21015,0 -0.37896,0.05168 -0.16536,0.04823 -0.29283,0.110243 -0.12402,0.05857 -0.21015,0.110243 -0.0827,0.04823 -0.12402,0.04823 -0.0276,0 -0.0482,-0.01378 -0.0207,-0.01378 -0.0379,-0.04134 -0.0138,-0.02756 -0.0207,-0.0689 -0.007,-0.04479 -0.007,-0.09646 0,-0.08613 0.0103,-0.134359 0.0138,-0.05168 0.0586,-0.09646 0.0482,-0.04479 0.16192,-0.103353 0.11369,-0.06201 0.26183,-0.110244 0.14814,-0.05168 0.32384,-0.08268 0.1757,-0.03445 0.35484,-0.03445 0.33417,0 0.56844,0.07579 0.23427,0.07579 0.37896,0.223932 0.1447,0.144694 0.21015,0.361735 0.0655,0.217041 0.0655,0.506429 z m -0.565,-1.415936 h -0.48575 q -0.23427,0 -0.40653,0.04134 -0.17225,0.0379 -0.28594,0.117133 -0.11369,0.07579 -0.16881,0.186035 -0.0517,0.106798 -0.0517,0.248047 0,0.241157 0.15159,0.385851 0.15503,0.141249 0.43064,0.141249 0.22393,0 0.41341,-0.113688 0.19292,-0.113688 0.40307,-0.347955 z m 3.58635,1.257461 q 0,0.06546 -0.0103,0.113688 -0.0103,0.04479 -0.0241,0.07579 -0.0138,0.02756 -0.0379,0.04134 -0.0241,0.01034 -0.0517,0.01034 h -1.90858 q -0.0724,0 -0.12058,-0.04823 -0.0448,-0.04823 -0.0448,-0.16192 v -0.117133 q 0,-0.04823 0.007,-0.08613 0.007,-0.0379 0.0207,-0.07579 0.0138,-0.0379 0.0379,-0.07924 0.0241,-0.04479 0.0586,-0.09991 l 1.3677,-2.12907 h -1.32636 q -0.0551,0 -0.0896,-0.05512 -0.031,-0.05857 -0.031,-0.186035 0,-0.06201 0.007,-0.106798 0.007,-0.04823 0.0207,-0.07579 0.0172,-0.03101 0.0379,-0.04134 0.0241,-0.01378 0.0551,-0.01378 h 1.77767 q 0.0379,0 0.0655,0.01034 0.031,0.01034 0.0517,0.03445 0.0207,0.02412 0.031,0.06201 0.0138,0.0379 0.0138,0.09646 v 0.110243 q 0,0.04823 -0.007,0.08957 -0.007,0.04134 -0.0207,0.08268 -0.0138,0.0379 -0.0379,0.08268 -0.0241,0.04479 -0.0586,0.09991 l -1.36082,2.12907 h 1.45383 q 0.0276,0 0.0482,0.01378 0.0241,0.01034 0.0379,0.0379 0.0172,0.02756 0.0276,0.07579 0.0103,0.04479 0.0103,0.110243 z m 2.16008,0.241157 -0.41341,1.140327 q -0.0207,0.05512 -0.1068,0.08268 -0.0827,0.03101 -0.25494,0.03101 -0.0896,0 -0.14469,-0.01034 -0.0551,-0.0069 -0.0861,-0.02756 -0.0276,-0.02067 -0.031,-0.05512 -0.003,-0.03445 0.0172,-0.08268 l 0.42719,-1.078315 q -0.031,-0.01378 -0.0586,-0.04479 -0.0276,-0.03101 -0.0379,-0.06546 l -1.10588,-2.962784 q -0.0276,-0.07235 -0.0276,-0.113688 0,-0.04134 0.0276,-0.06546 0.0276,-0.02412 0.0896,-0.03101 0.062,-0.01034 0.16537,-0.01034 0.10335,0 0.16192,0.0069 0.0586,0.0034 0.093,0.01723 0.0345,0.01378 0.0482,0.04134 0.0172,0.02412 0.0344,0.0689 l 0.88539,2.487361 h 0.0103 l 0.85439,-2.501141 q 0.0207,-0.06546 0.0482,-0.08268 0.031,-0.02067 0.0896,-0.02756 0.0586,-0.01034 0.16881,-0.01034 0.0965,0 0.15848,0.01034 0.062,0.0069 0.0896,0.03101 0.031,0.02412 0.031,0.06546 0,0.04134 -0.0207,0.103352 z m 6.03236,-0.08613 q 0,0.02756 -0.0138,0.04823 -0.0103,0.02067 -0.0413,0.03445 -0.0276,0.01033 -0.0758,0.01722 -0.0482,0.0069 -0.11713,0.0069 -0.0724,0 -0.12058,-0.0069 -0.0482,-0.0069 -0.0792,-0.01722 -0.031,-0.01378 -0.0448,-0.03445 -0.0138,-0.02067 -0.0138,-0.04823 v -0.409966 q -0.2446,0.265272 -0.50987,0.413412 -0.26183,0.148139 -0.57533,0.148139 -0.34107,0 -0.58222,-0.130914 -0.24116,-0.134359 -0.39275,-0.35829 -0.14813,-0.227377 -0.21704,-0.530545 -0.0689,-0.306614 -0.0689,-0.644233 0,-0.399632 0.0861,-0.720026 0.0861,-0.323839 0.25494,-0.551215 0.16881,-0.227377 0.41685,-0.347955 0.2515,-0.124024 0.57878,-0.124024 0.27216,0 0.49609,0.120579 0.22738,0.117133 0.44787,0.347954 v -1.801786 q 0,-0.02411 0.0103,-0.04479 0.0138,-0.02412 0.0482,-0.03445 0.0344,-0.01378 0.0861,-0.02067 0.0551,-0.01033 0.1378,-0.01033 0.0861,0 0.14125,0.01033 0.0551,0.0069 0.0861,0.02067 0.031,0.01034 0.0448,0.03445 0.0172,0.02067 0.0172,0.04479 z m -0.57188,-2.180746 q -0.23083,-0.285944 -0.44787,-0.434083 -0.21359,-0.151584 -0.44786,-0.151584 -0.21704,0 -0.36862,0.103353 -0.15159,0.103353 -0.24805,0.272163 -0.093,0.168809 -0.13781,0.382405 -0.0413,0.213597 -0.0413,0.434083 0,0.234266 0.0344,0.458198 0.0379,0.223931 0.12747,0.399631 0.0896,0.172255 0.23771,0.279053 0.14814,0.103353 0.37208,0.103353 0.11368,0 0.21704,-0.03101 0.10679,-0.03101 0.21704,-0.103353 0.11024,-0.07235 0.23082,-0.186035 0.12058,-0.117133 0.25494,-0.285943 z m 4.50618,0.596002 q 0,0.37896 -0.0999,0.699354 -0.0999,0.316949 -0.29973,0.547771 -0.19637,0.230821 -0.49609,0.361735 -0.29628,0.127469 -0.68902,0.127469 -0.38241,0 -0.66835,-0.113688 -0.2825,-0.113689 -0.47198,-0.33073 -0.18948,-0.217041 -0.2825,-0.5271 -0.093,-0.310059 -0.093,-0.7028 0,-0.37896 0.0965,-0.695909 0.0999,-0.320395 0.29628,-0.551216 0.19981,-0.230822 0.49609,-0.35829 0.29628,-0.127469 0.69247,-0.127469 0.3824,0 0.6649,0.113688 0.28594,0.113689 0.47542,0.33073 0.18948,0.217041 0.2825,0.5271 0.0965,0.310058 0.0965,0.699355 z m -0.59944,0.0379 q 0,-0.251493 -0.0482,-0.475424 -0.0448,-0.223931 -0.15158,-0.392741 -0.1068,-0.16881 -0.28939,-0.265273 -0.18259,-0.09991 -0.45475,-0.09991 -0.25149,0 -0.43408,0.08957 -0.17915,0.08957 -0.29628,0.254937 -0.11713,0.16192 -0.1757,0.385851 -0.0551,0.223932 -0.0551,0.489204 0,0.254937 0.0448,0.478869 0.0482,0.223931 0.15503,0.392741 0.11025,0.165365 0.29284,0.265272 0.18259,0.09646 0.45475,0.09646 0.24805,0 0.43064,-0.08957 0.18259,-0.08957 0.29972,-0.251492 0.11713,-0.16192 0.17225,-0.385851 0.0551,-0.223932 0.0551,-0.492649 z m 4.02731,-1.41249 q 0,0.120578 -0.0344,0.1757 -0.031,0.05168 -0.0827,0.05168 h -0.44442 q 0.12058,0.124023 0.16881,0.275608 0.0482,0.148139 0.0482,0.310059 0,0.268717 -0.0861,0.475423 -0.0861,0.206706 -0.24805,0.3514 -0.15848,0.141249 -0.37896,0.217041 -0.22049,0.07579 -0.48921,0.07579 -0.18948,0 -0.36173,-0.04823 -0.16881,-0.05168 -0.26183,-0.127469 -0.062,0.06201 -0.10335,0.141249 -0.0379,0.07924 -0.0379,0.182591 0,0.120578 0.11025,0.199815 0.11368,0.07924 0.29972,0.08613 l 0.8096,0.03445 q 0.23082,0.0069 0.42374,0.06546 0.19293,0.05512 0.33418,0.16192 0.14125,0.103353 0.22048,0.258382 0.0792,0.151585 0.0792,0.354845 0,0.213597 -0.0896,0.406522 -0.0896,0.192925 -0.27561,0.33762 -0.18259,0.148139 -0.46853,0.230821 -0.28594,0.08613 -0.67524,0.08613 -0.37552,0 -0.64079,-0.06546 -0.26183,-0.06201 -0.43064,-0.172255 -0.16881,-0.110243 -0.2446,-0.265273 -0.0758,-0.151584 -0.0758,-0.330729 0,-0.113688 0.0276,-0.220486 0.0276,-0.106798 0.0827,-0.203261 0.0586,-0.09646 0.14125,-0.18259 0.0861,-0.08957 0.19637,-0.1757 -0.16881,-0.08613 -0.25149,-0.217041 -0.0792,-0.130914 -0.0792,-0.282498 0,-0.210151 0.0861,-0.375516 0.0861,-0.165365 0.2136,-0.296278 -0.1068,-0.127469 -0.16881,-0.285944 -0.062,-0.161919 -0.062,-0.389296 0,-0.265272 0.0896,-0.475423 0.0896,-0.210151 0.24804,-0.354845 0.15848,-0.144694 0.37897,-0.220486 0.22393,-0.07924 0.48575,-0.07924 0.14125,0 0.26183,0.01723 0.12403,0.01378 0.23082,0.04134 h 0.93707 q 0.0586,0 0.0861,0.05857 0.031,0.05512 0.031,0.172255 z m -0.88883,0.816488 q 0,-0.316949 -0.1757,-0.492649 -0.17226,-0.179145 -0.49265,-0.179145 -0.16537,0 -0.28939,0.05512 -0.12058,0.05512 -0.20326,0.151584 -0.0792,0.09646 -0.12058,0.223932 -0.0379,0.124023 -0.0379,0.261827 0,0.306614 0.17225,0.482314 0.1757,0.1757 0.4892,0.1757 0.16881,0 0.29284,-0.05168 0.12402,-0.05512 0.20326,-0.148139 0.0827,-0.09646 0.12058,-0.220486 0.0413,-0.124024 0.0413,-0.258382 z m 0.28594,2.456354 q 0,-0.199815 -0.16536,-0.306613 -0.16192,-0.110243 -0.44098,-0.117134 l -0.8027,-0.02756 q -0.11025,0.08613 -0.18259,0.165364 -0.0689,0.07579 -0.11025,0.144694 -0.0413,0.07235 -0.0586,0.141249 -0.0138,0.0689 -0.0138,0.141249 0,0.223932 0.22737,0.33762 0.22738,0.117133 0.6339,0.117133 0.25838,0 0.43064,-0.05168 0.1757,-0.04823 0.2825,-0.130914 0.10679,-0.08268 0.15158,-0.18948 0.0482,-0.106798 0.0482,-0.223932 z"
       id="text4"
       transform="translate(-98.870614,60.575658)"
       aria-label="The quick brown fox jumps over the lazy dog" />
  </g>
</svg>
